<svg viewBox="90 240 2190 1380" fill="none" xmlns="http://www.w3.org/2000/svg" xmlns:xlink="http://www.w3.org/1999/xlink" overflow="visible" width="2190px" height="1380px"><g id="Master/Scenes/The Feedback"><g id="Screen" transform="translate(556.5 271.074) scale(1 1)"><g id="Screen/Information"><g id="Info Cards"><g id="Info Card"><path id="Bg" fill-rule="evenodd" clip-rule="evenodd" d="M134.809 187.348H591.074V1.80957H134.809V187.348Z" fill="white"/><path id="Border" fill-rule="evenodd" clip-rule="evenodd" d="M134.807 0H591.073C592.071 0 592.881 0.810151 592.881 1.80952V187.348C592.881 188.348 592.071 189.158 591.073 189.158H134.807C133.809 189.158 133 188.348 133 187.348V1.80952C133 0.810151 133.809 0 134.807 0ZM589.266 185.538V3.61814H136.615V185.538H589.266Z" fill="#141414"/><path id="Place Holder" fill-rule="evenodd" clip-rule="evenodd" d="M173.582 147.454H283.788V37.9774H173.582V147.454Z" fill="#FF4B33"/><path id="Text" fill-rule="evenodd" clip-rule="evenodd" d="M516.029 50.3842C520.022 50.3842 523.259 53.6248 523.259 57.6223C523.259 61.5443 520.143 64.7378 516.255 64.8569L516.029 64.8603H312.468C308.475 64.8603 305.238 61.6197 305.238 57.6223C305.238 53.7002 308.354 50.5067 312.243 50.3876L312.468 50.3842H516.029ZM467.855 86.845C471.848 86.845 475.085 90.0856 475.085 94.0831C475.085 98.0051 471.969 101.199 468.08 101.318L467.855 101.321H312.468C308.475 101.321 305.238 98.0806 305.238 94.0831C305.238 90.161 308.354 86.9675 312.243 86.8484L312.468 86.845H467.855ZM427.881 130.544C427.881 126.546 424.644 123.306 420.651 123.306H312.468L312.243 123.309C308.354 123.428 305.238 126.622 305.238 130.544C305.238 134.541 308.475 137.782 312.468 137.782H420.651L420.876 137.779C424.765 137.659 427.881 134.466 427.881 130.544Z" fill="#D3E2F2"/></g><g id="Info Card 2"><path id="Bg_2" fill-rule="evenodd" clip-rule="evenodd" d="M134.809 420.348H591.074V234.81H134.809V420.348Z" fill="white"/><path id="Border_2" fill-rule="evenodd" clip-rule="evenodd" d="M134.807 233H591.073C592.071 233 592.881 233.81 592.881 234.81V420.348C592.881 421.348 592.071 422.158 591.073 422.158H134.807C133.809 422.158 133 421.348 133 420.348V234.81C133 233.81 133.809 233 134.807 233ZM589.266 418.538V236.618H136.615V418.538H589.266Z" fill="#141414"/><path id="Place Holder_2" fill-rule="evenodd" clip-rule="evenodd" d="M173.582 380.454H283.788V270.977H173.582V380.454Z" fill="#13D6C3"/><path id="Text_2" fill-rule="evenodd" clip-rule="evenodd" d="M516.029 283.384C520.022 283.384 523.259 286.625 523.259 290.622C523.259 294.544 520.143 297.738 516.255 297.857L516.029 297.86H312.468C308.475 297.86 305.238 294.62 305.238 290.622C305.238 286.7 308.354 283.507 312.243 283.388L312.468 283.384H516.029ZM467.855 319.845C471.848 319.845 475.085 323.086 475.085 327.083C475.085 331.005 471.969 334.199 468.08 334.318L467.855 334.321H312.468C308.475 334.321 305.238 331.081 305.238 327.083C305.238 323.161 308.354 319.968 312.243 319.848L312.468 319.845H467.855ZM427.881 363.544C427.881 359.546 424.644 356.306 420.651 356.306H312.468L312.243 356.309C308.354 356.428 305.238 359.622 305.238 363.544C305.238 367.541 308.475 370.782 312.468 370.782H420.651L420.876 370.779C424.765 370.659 427.881 367.466 427.881 363.544Z" fill="#D3E2F2"/></g><g id="Info Card 3" opacity="0.553153"><path id="Bg_3" fill-rule="evenodd" clip-rule="evenodd" d="M134.809 653.348H591.074V467.81H134.809V653.348Z" fill="white"/><path id="Border_3" fill-rule="evenodd" clip-rule="evenodd" d="M134.807 466H591.073C592.071 466 592.881 466.81 592.881 467.81V653.348C592.881 654.348 592.071 655.158 591.073 655.158H134.807C133.809 655.158 133 654.348 133 653.348V467.81C133 466.81 133.809 466 134.807 466ZM589.266 651.538V469.618H136.615V651.538H589.266Z" fill="#141414"/><path id="Place Holder_3" fill-rule="evenodd" clip-rule="evenodd" d="M173.582 613.454H283.788V503.977H173.582V613.454Z" fill="#02BAD3"/><path id="Text_3" fill-rule="evenodd" clip-rule="evenodd" d="M516.029 516.384C520.022 516.384 523.259 519.625 523.259 523.622C523.259 527.544 520.143 530.738 516.255 530.857L516.029 530.86H312.468C308.475 530.86 305.238 527.62 305.238 523.622C305.238 519.7 308.354 516.507 312.243 516.388L312.468 516.384H516.029ZM467.855 552.845C471.848 552.845 475.085 556.086 475.085 560.083C475.085 564.005 471.969 567.199 468.08 567.318L467.855 567.321H312.468C308.475 567.321 305.238 564.081 305.238 560.083C305.238 556.161 308.354 552.968 312.243 552.848L312.468 552.845H467.855ZM427.881 596.544C427.881 592.546 424.644 589.306 420.651 589.306H312.468L312.243 589.309C308.354 589.428 305.238 592.622 305.238 596.544C305.238 600.541 308.475 603.782 312.468 603.782H420.651L420.876 603.779C424.765 603.659 427.881 600.466 427.881 596.544Z" fill="#D3E2F2"/></g><g id="Info Card 4" opacity="0.162202"><path id="Bg_4" fill-rule="evenodd" clip-rule="evenodd" d="M134.809 886.348H591.074V700.81H134.809V886.348Z" fill="white"/><path id="Border_4" fill-rule="evenodd" clip-rule="evenodd" d="M134.807 699H591.073C592.071 699 592.881 699.81 592.881 700.81V886.348C592.881 887.348 592.071 888.158 591.073 888.158H134.807C133.809 888.158 133 887.348 133 886.348V700.81C133 699.81 133.809 699 134.807 699ZM589.266 884.538V702.618H136.615V884.538H589.266Z" fill="#141414"/><path id="Place Holder_4" fill-rule="evenodd" clip-rule="evenodd" d="M173.582 846.454H283.788V736.977H173.582V846.454Z" fill="#FFC81A"/><path id="Text_4" fill-rule="evenodd" clip-rule="evenodd" d="M516.029 749.384C520.022 749.384 523.259 752.625 523.259 756.622C523.259 760.544 520.143 763.738 516.255 763.857L516.029 763.86H312.468C308.475 763.86 305.238 760.62 305.238 756.622C305.238 752.7 308.354 749.507 312.243 749.388L312.468 749.384H516.029ZM467.855 785.845C471.848 785.845 475.085 789.086 475.085 793.083C475.085 797.005 471.969 800.199 468.08 800.318L467.855 800.321H312.468C308.475 800.321 305.238 797.081 305.238 793.083C305.238 789.161 308.354 785.968 312.243 785.848L312.468 785.845H467.855ZM427.881 829.544C427.881 825.546 424.644 822.306 420.651 822.306H312.468L312.243 822.309C308.354 822.428 305.238 825.622 305.238 829.544C305.238 833.541 308.475 836.782 312.468 836.782H420.651L420.876 836.779C424.765 836.659 427.881 833.466 427.881 829.544Z" fill="#D3E2F2"/></g></g><g id="Info Cards_2"><g id="Info Card_2"><path id="Bg_5" fill-rule="evenodd" clip-rule="evenodd" d="M696.809 187.348H1153.07V1.80957H696.809V187.348Z" fill="white"/><path id="Border_5" fill-rule="evenodd" clip-rule="evenodd" d="M696.807 0H1153.07C1154.07 0 1154.88 0.810151 1154.88 1.80952V187.348C1154.88 188.348 1154.07 189.158 1153.07 189.158H696.807C695.809 189.158 695 188.348 695 187.348V1.80952C695 0.810151 695.809 0 696.807 0ZM1151.27 185.538V3.61814H698.615V185.538H1151.27Z" fill="#141414"/><path id="Place Holder_5" fill-rule="evenodd" clip-rule="evenodd" d="M735.582 147.454H845.788V37.9774H735.582V147.454Z" fill="#FFC81A"/><path id="Text_5" fill-rule="evenodd" clip-rule="evenodd" d="M1078.03 50.3842C1082.02 50.3842 1085.26 53.6248 1085.26 57.6223C1085.26 61.5443 1082.14 64.7378 1078.25 64.8569L1078.03 64.8603H874.468C870.475 64.8603 867.238 61.6197 867.238 57.6223C867.238 53.7002 870.354 50.5067 874.243 50.3876L874.468 50.3842H1078.03ZM1029.86 86.845C1033.85 86.845 1037.08 90.0856 1037.08 94.0831C1037.08 98.0051 1033.97 101.199 1030.08 101.318L1029.86 101.321H874.468C870.475 101.321 867.238 98.0806 867.238 94.0831C867.238 90.161 870.354 86.9675 874.243 86.8484L874.468 86.845H1029.86ZM989.881 130.544C989.881 126.546 986.644 123.306 982.651 123.306H874.468L874.243 123.309C870.354 123.428 867.238 126.622 867.238 130.544C867.238 134.541 870.475 137.782 874.468 137.782H982.651L982.876 137.779C986.765 137.659 989.881 134.466 989.881 130.544Z" fill="#D3E2F2"/></g><g id="Info Card 2_2"><path id="Bg_6" fill-rule="evenodd" clip-rule="evenodd" d="M696.809 420.348H1153.07V234.81H696.809V420.348Z" fill="white"/><path id="Border_6" fill-rule="evenodd" clip-rule="evenodd" d="M696.807 233H1153.07C1154.07 233 1154.88 233.81 1154.88 234.81V420.348C1154.88 421.348 1154.07 422.158 1153.07 422.158H696.807C695.809 422.158 695 421.348 695 420.348V234.81C695 233.81 695.809 233 696.807 233ZM1151.27 418.538V236.618H698.615V418.538H1151.27Z" fill="#141414"/><path id="Place Holder_6" fill-rule="evenodd" clip-rule="evenodd" d="M735.582 380.454H845.788V270.977H735.582V380.454Z" fill="#FFC81A"/><path id="Text_6" fill-rule="evenodd" clip-rule="evenodd" d="M1078.03 283.384C1082.02 283.384 1085.26 286.625 1085.26 290.622C1085.26 294.544 1082.14 297.738 1078.25 297.857L1078.03 297.86H874.468C870.475 297.86 867.238 294.62 867.238 290.622C867.238 286.7 870.354 283.507 874.243 283.388L874.468 283.384H1078.03ZM1029.86 319.845C1033.85 319.845 1037.08 323.086 1037.08 327.083C1037.08 331.005 1033.97 334.199 1030.08 334.318L1029.86 334.321H874.468C870.475 334.321 867.238 331.081 867.238 327.083C867.238 323.161 870.354 319.968 874.243 319.848L874.468 319.845H1029.86ZM989.881 363.544C989.881 359.546 986.644 356.306 982.651 356.306H874.468L874.243 356.309C870.354 356.428 867.238 359.622 867.238 363.544C867.238 367.541 870.475 370.782 874.468 370.782H982.651L982.876 370.779C986.765 370.659 989.881 367.466 989.881 363.544Z" fill="#D3E2F2"/></g><g id="Info Card 3_2" opacity="0.553153"><path id="Bg_7" fill-rule="evenodd" clip-rule="evenodd" d="M696.809 653.348H1153.07V467.81H696.809V653.348Z" fill="white"/><path id="Border_7" fill-rule="evenodd" clip-rule="evenodd" d="M696.807 466H1153.07C1154.07 466 1154.88 466.81 1154.88 467.81V653.348C1154.88 654.348 1154.07 655.158 1153.07 655.158H696.807C695.809 655.158 695 654.348 695 653.348V467.81C695 466.81 695.809 466 696.807 466ZM1151.27 651.538V469.618H698.615V651.538H1151.27Z" fill="#141414"/><path id="Place Holder_7" fill-rule="evenodd" clip-rule="evenodd" d="M735.582 613.454H845.788V503.977H735.582V613.454Z" fill="#FFC81A"/><path id="Text_7" fill-rule="evenodd" clip-rule="evenodd" d="M1078.03 516.384C1082.02 516.384 1085.26 519.625 1085.26 523.622C1085.26 527.544 1082.14 530.738 1078.25 530.857L1078.03 530.86H874.468C870.475 530.86 867.238 527.62 867.238 523.622C867.238 519.7 870.354 516.507 874.243 516.388L874.468 516.384H1078.03ZM1029.86 552.845C1033.85 552.845 1037.08 556.086 1037.08 560.083C1037.08 564.005 1033.97 567.199 1030.08 567.318L1029.86 567.321H874.468C870.475 567.321 867.238 564.081 867.238 560.083C867.238 556.161 870.354 552.968 874.243 552.848L874.468 552.845H1029.86ZM989.881 596.544C989.881 592.546 986.644 589.306 982.651 589.306H874.468L874.243 589.309C870.354 589.428 867.238 592.622 867.238 596.544C867.238 600.541 870.475 603.782 874.468 603.782H982.651L982.876 603.779C986.765 603.659 989.881 600.466 989.881 596.544Z" fill="#D3E2F2"/></g><g id="Info Card 4_2" opacity="0.162202"><path id="Bg_8" fill-rule="evenodd" clip-rule="evenodd" d="M696.809 886.348H1153.07V700.81H696.809V886.348Z" fill="white"/><path id="Border_8" fill-rule="evenodd" clip-rule="evenodd" d="M696.807 699H1153.07C1154.07 699 1154.88 699.81 1154.88 700.81V886.348C1154.88 887.348 1154.07 888.158 1153.07 888.158H696.807C695.809 888.158 695 887.348 695 886.348V700.81C695 699.81 695.809 699 696.807 699ZM1151.27 884.538V702.618H698.615V884.538H1151.27Z" fill="#141414"/><path id="Place Holder_8" fill-rule="evenodd" clip-rule="evenodd" d="M735.582 846.454H845.788V736.977H735.582V846.454Z" fill="#FFC81A"/><path id="Text_8" fill-rule="evenodd" clip-rule="evenodd" d="M1078.03 749.384C1082.02 749.384 1085.26 752.625 1085.26 756.622C1085.26 760.544 1082.14 763.738 1078.25 763.857L1078.03 763.86H874.468C870.475 763.86 867.238 760.62 867.238 756.622C867.238 752.7 870.354 749.507 874.243 749.388L874.468 749.384H1078.03ZM1029.86 785.845C1033.85 785.845 1037.08 789.086 1037.08 793.083C1037.08 797.005 1033.97 800.199 1030.08 800.318L1029.86 800.321H874.468C870.475 800.321 867.238 797.081 867.238 793.083C867.238 789.161 870.354 785.968 874.243 785.848L874.468 785.845H1029.86ZM989.881 829.544C989.881 825.546 986.644 822.306 982.651 822.306H874.468L874.243 822.309C870.354 822.428 867.238 825.622 867.238 829.544C867.238 833.541 870.475 836.782 874.468 836.782H982.651L982.876 836.779C986.765 836.659 989.881 833.466 989.881 829.544Z" fill="#D3E2F2"/></g></g></g></g><g id="Background"><g id="Plant" transform="translate(0 632) scale(1 1)"><g id="Plant/Plant 4"><g id="Group"><path id="Leaf 1" fill-rule="evenodd" clip-rule="evenodd" d="M244.073 853.531C244.073 853.531 229.605 825.503 258.609 781.305C320.021 687.725 220.705 732.861 198.735 668.952C180.821 616.844 210.646 564.196 180.697 550.247C131.673 527.415 80.5689 493.756 113.394 455.673C136.426 428.951 215.766 431.361 246.876 513.594C266.343 565.053 343.053 530.725 411.113 612.247C431.383 636.525 475.896 739.273 452.538 853.531H244.073Z" fill="#141414"/><g id="Leaf 2"><path id="Fill 4" fill-rule="evenodd" clip-rule="evenodd" d="M325.4 853.531C325.4 853.531 292.267 812.469 308.337 767.439C321.299 731.113 356.08 721.177 357.246 690.58C358.715 651.998 320.005 657.304 313.88 609.666C309.121 572.647 331.764 538.601 330.274 518.912C328.019 489.125 277.108 473.667 259.627 428.872C237.463 372.078 306.465 359.105 337.2 378.311C375.779 402.42 377.083 438.391 393.995 460.04C413.202 484.628 473.325 490.149 481.957 550.772C487.431 589.221 464.978 622.629 475.56 655.181C483.421 679.36 530.35 690.035 540.227 743.465C550.858 800.979 507.981 853.531 507.981 853.531H325.4Z" fill="#FFB500"/><path id="Fill 6" fill-rule="evenodd" clip-rule="evenodd" d="M421.477 853.531H425.526C426.979 844.145 439.717 755.435 420.897 649.779C404.689 558.787 355.569 473.723 315.005 424.457C314.303 423.604 313.044 423.482 312.19 424.184C311.337 424.886 311.215 426.147 311.917 427C334.131 453.979 356.129 488.489 373.859 524.173C394.869 566.456 409.772 610.133 416.959 650.48C436.272 758.899 422.159 849.312 421.477 853.531" fill="#070707"/></g></g></g></g><g id="Plant" transform="translate(1623 665.074) scale(1 1)"><g id="Plant/Plant 5"><g id="Leaf"><path id="Fill 1" fill-rule="evenodd" clip-rule="evenodd" d="M142.073 854C142.073 854 38.7938 792.106 59.8255 680.113C72.3796 613.26 114.963 616.538 139.609 565.925C155.338 533.623 131.439 446.932 180.495 389.904C226.323 336.629 301.255 341.458 325.391 329.885C357.739 314.375 370.058 281.791 379.304 255.03C413.783 155.257 493.443 157.951 506.41 207.589C522.043 267.434 507.075 303.502 433.524 362.151C378.258 406.22 459.174 455.663 411.041 535.903C384.145 580.739 311.823 604.043 347.15 662.018C395.526 741.406 386.44 819.449 361.777 854H142.073Z" fill="#FF4B33"/><path id="Fill 10" fill-rule="evenodd" clip-rule="evenodd" d="M443.406 258.575C442.624 257.801 441.361 257.808 440.586 258.595C440.327 258.858 414.244 285.467 380.282 331.474C348.951 373.923 304.281 442.077 269.41 525.699C238.434 599.984 204.117 704.414 213.608 854H217.604C208.11 705.103 242.264 601.165 273.091 527.238C339.511 367.957 442.394 262.447 443.426 261.399C444.199 260.615 444.19 259.349 443.406 258.575" fill="white"/><path id="Fill 4" fill-rule="evenodd" clip-rule="evenodd" d="M511.73 488C505.488 488 499.131 493.164 499.131 499.42C499.131 500.461 499.283 501.463 499.546 502.421C446.698 528.402 399.565 562.051 359.321 602.561C325.081 637.028 295.722 676.507 272.062 719.896C251.011 758.501 238.459 793.126 231.637 815.376C225.256 836.184 222.553 850.375 221.91 854H225.965C226.77 849.598 229.474 836.045 235.451 816.549C242.22 794.479 254.672 760.126 275.563 721.816C299.043 678.756 328.175 639.583 362.149 605.384C402.073 565.197 448.833 531.812 501.268 506.029C503.32 508.883 506.656 510.748 510.433 510.748C516.675 510.748 521.91 506.764 521.91 500.508C521.91 494.253 517.971 488 511.73 488" fill="#141414"/><path id="Fill 7" fill-rule="evenodd" clip-rule="evenodd" d="M578.336 616.953C572.079 616.953 565.708 622.117 565.708 628.374V628.377C546.338 631.849 513.648 639.101 454.234 660.976C375.152 690.094 320.491 740.93 288.562 778.445C253.959 819.101 237.815 853.387 237.656 853.728C237.615 853.817 237.59 853.908 237.562 854H241.975C245.354 847.205 261.341 816.578 291.695 780.933C323.306 743.818 377.401 693.529 455.617 664.73C514.728 642.967 547.197 635.762 566.427 632.312C568.028 636.624 572.167 639.702 577.036 639.702C583.293 639.702 588.54 635.719 588.54 629.462C588.54 623.205 584.593 616.953 578.336 616.953" fill="#141414"/></g></g></g><path id="Path 5 (Stroke)" fill-rule="evenodd" clip-rule="evenodd" d="M93 1487.5C93 1486.4 93.8954 1485.5 95 1485.5H2135C2136.1 1485.5 2137 1486.4 2137 1487.5C2137 1488.6 2136.1 1489.5 2135 1489.5H95C93.8954 1489.5 93 1488.6 93 1487.5Z" fill="#141414"/></g><g id="Master/Character/Standing" transform="matrix(-1 0 0 1 2258 314) scale(1 1)"><g id="Master/Character/Standing"><g id="Lower Body" transform="translate(0 569) scale(1 1)"><g id="Lower Body/Walking"><g id="Assets 66"><path id="SKIN" fill-rule="evenodd" clip-rule="evenodd" d="M272.021 457.914L182.115 552.316L232.642 597.972L326.544 531.419" fill="white"/><path id="Fill 2" fill-rule="evenodd" clip-rule="evenodd" d="M232.643 600.098C232.13 600.098 231.62 599.912 231.217 599.549L180.689 553.894C180.264 553.509 180.012 552.969 179.99 552.396C179.969 551.823 180.18 551.265 180.575 550.849L270.481 456.447C271.291 455.597 272.637 455.564 273.488 456.373C274.339 457.184 274.372 458.53 273.561 459.38L185.161 552.202L232.804 595.25L325.315 529.683C326.272 529.004 327.6 529.23 328.28 530.189C328.959 531.147 328.733 532.474 327.774 533.154L233.872 599.706C233.502 599.968 233.072 600.098 232.643 600.098" fill="#141414"/><path id="Fill 4" fill-rule="evenodd" clip-rule="evenodd" d="M197.329 529.054C198.329 528.739 199.402 529.251 199.788 530.227C200.156 531.158 200.606 532.341 201.137 533.737C204.389 542.285 211.155 560.074 220.454 575.147C220.462 575.16 220.47 575.172 220.478 575.186C225.963 584.061 233.215 590.365 240.9 592.938C241.511 593.142 241.984 593.628 242.177 594.245C251.427 624.263 258.109 645.951 257.433 665.504C257.314 668.941 255.653 682.094 249.704 683.674C246.954 684.404 244.234 682.63 241.621 678.403C232.082 662.968 211.443 629.77 193.234 600.48C178.5 576.78 165.776 556.312 161.005 548.593C160.501 547.778 160.416 546.813 160.765 545.876C162.796 540.421 187.012 532.294 197.329 529.054" fill="#ffc81a"/><path id="Fill 6" fill-rule="evenodd" clip-rule="evenodd" d="M153.706 553.535L236.163 686.946C237.534 689.163 240.441 689.849 242.659 688.478L243.985 687.659C246.203 686.288 246.889 683.381 245.519 681.163L163.061 547.753C161.691 545.535 158.783 544.848 156.566 546.22L155.239 547.039C153.022 548.41 152.335 551.317 153.706 553.535" fill="#141414"/><path id="Fill 9" fill-rule="evenodd" clip-rule="evenodd" d="M242.526 630.65C242.944 631.327 243.725 631.74 244.568 631.647C252.283 630.801 254.195 637.156 254.386 637.884C254.686 639.014 255.843 639.698 256.975 639.407C258.108 639.114 258.794 637.968 258.508 636.835C257.579 633.134 253.369 626.404 244.104 627.42C242.937 627.547 242.094 628.597 242.222 629.764C242.257 630.089 242.365 630.389 242.526 630.65" fill="#141414"/><path id="Fill 11" fill-rule="evenodd" clip-rule="evenodd" d="M237.009 611.982C237.427 612.658 238.208 613.071 239.051 612.978C246.767 612.132 248.678 618.488 248.869 619.215C249.168 620.346 250.326 621.03 251.458 620.738C252.591 620.445 253.276 619.299 252.991 618.166C252.059 614.463 247.849 607.735 238.587 608.751C237.42 608.878 236.577 609.929 236.705 611.096C236.741 611.421 236.848 611.72 237.009 611.982" fill="#141414"/></g><g id="Assets 67"><path id="SKIN_2" fill-rule="evenodd" clip-rule="evenodd" d="M618.186 601.399L637.007 685.944L711.544 693.712L701.536 585.118L618.186 601.399Z" fill="white"/><path id="Fill 15" fill-rule="evenodd" clip-rule="evenodd" d="M712.873 696.541C712.804 696.541 712.734 696.537 712.665 696.53L636.645 688.674C635.673 688.578 634.891 687.832 634.749 686.865L616.581 601.044C616.411 599.882 617.216 598.802 618.378 598.632C619.542 598.469 620.619 599.268 620.79 600.429L638.717 684.603L710.156 692.011L700.119 591.232C699.862 590.086 700.584 588.949 701.729 588.692C702.88 588.435 704.014 589.158 704.269 590.303L714.948 693.949C715.098 694.615 714.918 695.312 714.466 695.823C714.06 696.281 713.479 696.541 712.873 696.541" fill="#141414"/><path id="Fill 17" fill-rule="evenodd" clip-rule="evenodd" d="M630.45 679.86C630.708 678.843 631.708 678.2 632.741 678.384C633.725 678.561 634.969 678.8 636.435 679.083C645.416 680.811 664.105 684.408 681.816 684.422H681.862C692.295 684.422 701.471 681.568 707.7 676.383C708.194 675.971 708.857 675.825 709.483 675.985C739.88 683.899 761.843 689.617 778.119 700.472C780.98 702.381 791.296 710.709 789.512 716.599C788.686 719.323 785.748 720.704 780.779 720.704C762.634 720.704 723.543 720.805 689.054 720.895C661.148 720.968 637.047 721.031 627.973 721.031C627.015 721.031 626.149 720.596 625.536 719.807C621.963 715.211 627.782 690.339 630.45 679.86" fill="#ffc81a"/><path id="Fill 19" fill-rule="evenodd" clip-rule="evenodd" d="M628.338 729.838H785.175C787.781 729.838 789.894 727.726 789.894 725.119V723.559C789.894 720.953 787.781 718.84 785.175 718.84H628.338C625.732 718.84 623.619 720.953 623.619 723.559V725.119C623.619 727.726 625.732 729.838 628.338 729.838" fill="#141414"/><path id="Fill 21" fill-rule="evenodd" clip-rule="evenodd" d="M740.633 694.828C741.428 694.828 742.19 694.381 742.554 693.615C745.891 686.607 752.302 688.322 753.023 688.543C754.141 688.882 755.331 688.257 755.678 687.141C756.025 686.023 755.411 684.838 754.296 684.484C750.66 683.33 742.722 683.372 738.715 691.787C738.21 692.848 738.66 694.116 739.72 694.621C740.015 694.762 740.326 694.828 740.633 694.828" fill="#141414"/><path id="Fill 23" fill-rule="evenodd" clip-rule="evenodd" d="M721.854 689.706C722.649 689.706 723.411 689.259 723.775 688.493C727.113 681.485 733.524 683.2 734.243 683.421C735.362 683.761 736.552 683.135 736.899 682.019C737.246 680.901 736.631 679.716 735.517 679.362C731.877 678.209 723.941 678.252 719.936 686.665C719.431 687.726 719.881 688.994 720.941 689.499C721.236 689.64 721.547 689.706 721.854 689.706" fill="#141414"/></g><g id="Pant"><path id="Fill 25" fill-rule="evenodd" clip-rule="evenodd" d="M434.653 1.0002C434.653 1.0002 423.43 57.9922 417.887 98.0012C412.344 138.01 401.423 175.097 385.554 210.57C344.837 301.584 220.293 430.919 220.293 430.919C220.293 430.919 259.973 503.376 346.035 573.426C536 420 561 180 561 180C572.975 310.532 576.888 420.062 569.161 607.409C636.124 609.486 694.1 606.528 748.41 581.809C756.198 581.915 724.413 191.317 651 0L434.653 1.0002Z" fill="#0B379B"/><g id="Combined Shape"><path fill-rule="evenodd" clip-rule="evenodd" d="M523.854 31.8088C524.029 30.6468 525.12 29.8488 526.274 30.0238C527.435 30.1998 528.235 31.2828 528.059 32.4438C527.96 33.1068 525.527 48.8818 518.522 65.1648C509.109 87.0468 495.855 99.1008 480.181 100.058C480.103 100.463 480.026 100.869 479.949 101.274C479.746 102.345 479.542 103.415 479.332 104.485C475.304 125.223 470.573 145.815 465.214 166.24L463.175 173.891C462.71 175.53 462.219 177.165 461.727 178.801C461.455 179.708 461.183 180.615 460.915 181.522L459.775 185.336L459.73 185.486C459.369 186.709 459.009 187.931 458.566 189.126L455.943 196.634L454.632 200.388C454.341 201.196 454.022 201.993 453.703 202.791C453.53 203.223 453.357 203.655 453.189 204.089L450.264 211.477C449.475 213.561 448.577 215.597 447.68 217.634C447.51 218.019 447.34 218.404 447.171 218.79L443.98 226.059C435.24 245.34 425.136 263.947 414.267 282.056C392.531 318.292 367.892 352.672 341.69 385.738C328.584 402.274 315.066 418.478 301.169 434.351C294.244 442.308 287.249 450.204 280.13 457.992C273.013 465.789 265.834 473.496 258.431 481.074C257.66 481.865 256.393 481.88 255.603 481.108C254.812 480.336 254.798 479.07 255.57 478.28L255.572 478.277L255.597 478.252C285.008 448.257 312.742 416.461 338.888 383.516C351.961 367.033 364.625 350.226 376.738 333.034C388.834 315.833 400.449 298.286 411.148 280.197C421.847 262.115 431.766 243.563 440.306 224.403L443.419 217.183C443.583 216.801 443.749 216.42 443.914 216.038C444.792 214.016 445.669 211.992 446.435 209.926L449.281 202.603C449.445 202.172 449.614 201.742 449.783 201.313C450.093 200.524 450.403 199.734 450.685 198.936L451.955 195.222L454.498 187.797C454.919 186.634 455.262 185.448 455.605 184.262L455.665 184.054L456.763 180.29C457.018 179.404 457.278 178.52 457.537 177.636C458.014 176.014 458.49 174.391 458.943 172.757L460.925 165.127C468.125 136.987 474.155 108.513 478.593 79.8278C478.769 78.8475 478.782 78.6845 478.799 78.4711C478.82 78.2094 478.847 77.8717 479.189 75.8558C480.91 64.3518 482.378 52.8158 483.552 41.2528L483.554 41.2408C483.711 39.6938 485.092 38.5668 486.639 38.7238C488.187 38.8808 489.314 40.2628 489.156 41.8098C489.156 41.8148 489.154 41.8358 489.154 41.8408C487.118 59.9178 484.328 77.8758 481.003 95.7248C514.293 92.4308 523.76 32.4228 523.854 31.8088ZM578.081 130.328C578.659 131.407 592.408 157.572 605.655 229.17C617.844 295.056 631.782 413.504 628.95 603.636C628.933 604.73 628.041 605.606 626.951 605.606H626.921C625.816 605.589 624.933 604.681 624.95 603.576C627.772 414.093 613.922 296.03 601.805 230.354C588.675 159.175 574.695 132.479 574.555 132.217C574.035 131.244 574.401 130.032 575.375 129.511C576.345 128.99 577.557 129.356 578.081 130.328Z" fill="white" fill-opacity="0.5" style="mix-blend-mode:soft-light"/></g></g></g></g><g id="Upper Body" transform="translate(272 187) scale(1 1)"><g id="Upper Body/Arms Up"><g id="Hand 2"><path id="Fill 1" fill-rule="evenodd" clip-rule="evenodd" d="M560.16 -34.3514C569.879 -49.9984 562.375 -53.7434 556.969 -50.4444C556.969 -50.4444 566.331 -61.9514 561.719 -66.9354C558.838 -70.0484 555.813 -69.6134 548.12 -62.5704C548.12 -62.5704 556.886 -75.4724 551.883 -80.4344C547.24 -85.0394 540.852 -76.4744 535.236 -69.9134C535.236 -69.9134 540.405 -85.9924 531.602 -86.7024C522.891 -87.4054 510.396 -61.8114 505.147 -51.2544C506.926 -64.1174 499.355 -76.1754 495.147 -70.5944C489.947 -63.6954 468.963 3.18864 437.212 60.5956C396.851 126.217 346.852 120.953 346.852 120.953L373.702 209.871C373.702 209.871 381.576 214.172 412.329 196.995C468.061 165.865 500.494 101.519 514.878 65.9216C516.216 65.1286 517.027 64.3456 517.205 63.6106C518.436 58.5506 519.82 53.5846 521.313 48.7216C522.808 44.3496 523.623 41.6176 523.801 41.0126C535.176 7.40964 551.348 -20.1654 560.16 -34.3514" fill="white"/><path id="Fill 3" fill-rule="evenodd" clip-rule="evenodd" d="M561.733 -56.5878C564.333 -60.9308 567.002 -67.3568 563.278 -71.3798C560.525 -74.3538 557.629 -74.5488 554.245 -72.8438C559.472 -86.4268 547.651 -91.9818 538.813 -80.3328C539.313 -85.4618 537.627 -91.4528 531.772 -91.8218C524.122 -92.4418 515.539 -79.0878 507.174 -62.9748C505.749 -71.7408 500.2 -81.5888 493.446 -74.8748C480.571 -45.5298 462.797 6.21723 439.05 49.9612C438.862 50.3002 438.006 52.0812 437.757 52.5072C418.669 85.1312 397.318 100.63 381.765 107.967C372.61 112.285 364.492 114.29 358.414 115.201L359.616 119.343C365.894 118.354 374.058 116.269 383.3 111.945C416.556 96.3862 437.805 63.8802 450.013 38.4722C450.382 37.7042 451.979 33.8002 452.324 33.0912C471.261 -5.78978 486.289 -47.1228 496.844 -72.3148C499.937 -74.6498 504.407 -63.1968 503.039 -54.5458C502.84 -52.2018 502.903 -49.9688 503.541 -47.6758C503.92 -45.5038 505.998 -43.9738 507.608 -42.4938C513.66 -36.9308 511.499 -26.8318 511.363 -26.2398C511.221 -25.6188 511.204 -25.2128 510.98 -24.7538C510.345 -23.5138 512.07 -22.5678 512.773 -23.7338C517.199 -31.3578 513.586 -41.2838 508.298 -47.5128C507.367 -49.2928 507.083 -52.0698 507.43 -54.0728C511.617 -62.5018 524.358 -88.1528 531.43 -87.5838C536.702 -86.6248 534.262 -77.9878 533.28 -73.7968L522.773 -56.9388C522.298 -56.1778 522.531 -55.1758 523.292 -54.7008C524.029 -54.2418 524.994 -54.4488 525.485 -55.1528C525.485 -55.1528 536.92 -71.6128 536.92 -71.6138C540.771 -75.5378 546.403 -84.8018 550.384 -81.9238C554.941 -74.6368 538.525 -56.2928 535.145 -49.4528C533.974 -47.7028 536.689 -45.8518 537.89 -47.5848L549.714 -64.1478C557.559 -71.2918 558.88 -69.8698 560.156 -68.4908C562.686 -65.7578 557.988 -58.0768 555.317 -54.7848C555.31 -54.7698 546.123 -43.1988 546.113 -43.1838C544.912 -41.7128 547.138 -39.7918 548.419 -41.1948L558.284 -51.7418C564.496 -54.4588 564.123 -47.9888 558.353 -38.4718C552.561 -32.2918 526.519 20.9002 519.732 43.8992C519.258 45.5052 516.831 51.9482 516.279 53.4242C512.062 64.6952 505.36 80.8202 495.94 98.3802C466.515 153.228 433.666 179.64 411.29 192.138C398.552 199.252 389.893 202.569 384.199 204.063L385.389 208.164C392.85 206.194 402.233 202.068 413.364 195.85C454.829 172.69 483.218 131.11 499.733 100.306C508.721 83.5422 515.262 68.0612 519.557 56.7782C519.847 56.0162 525.613 39.3732 525.821 38.6732C534.059 14.3192 546.172 -10.8048 561.965 -36.2298C569.682 -49.3988 567.928 -54.7358 561.733 -56.5878" fill="#141414"/></g><g id="Hand 1"><path id="Fill 5" fill-rule="evenodd" clip-rule="evenodd" d="M176.791 125.019C136.04 117.495 99.604 92.851 75.992 36.836L75.763 36.79C54.144 -19.269 42.144 -77.296 38.068 -84.064C34.462 -90.052 25.681 -78.844 26.116 -65.866C21.991 -76.911 12.218 -103.663 3.48 -103.867C-5.349 -104.073 -1.875 -87.545 -1.875 -87.545C-6.78 -94.653 -12.245 -103.835 -17.341 -99.736C-22.832 -95.319 -15.451 -81.578 -15.451 -81.578C-22.372 -89.38 -25.335 -90.127 -28.523 -87.33C-33.628 -82.851 -25.51 -70.436 -25.51 -70.436C-30.545 -74.277 -38.397 -71.331 -30.353 -54.76C-21.48 -36.484 -3.822 2.62401 2.21 47.129C2.333 48.038 3.365 49.113 5.148 50.267C34.348 150.81 98.315 192.986 150.49 214.09L176.791 125.019Z" fill="white"/><path id="Fill 7" fill-rule="evenodd" clip-rule="evenodd" d="M151.108 208.999C91.6087 184.818 23.4397 136.241 0.376747 20.361C0.273747 19.842 -0.442254 17.463 -0.711254 16.303C-7.99725 -10.578 -24.0603 -52.915 -28.4403 -58.688C-33.1933 -68.751 -32.8923 -75.225 -26.9963 -71.878L-18.2783 -60.366C-17.1493 -58.836 -14.7363 -60.517 -15.7783 -62.104C-15.7873 -62.12 -23.7243 -74.581 -23.7293 -74.598C-26.0453 -78.149 -29.9203 -86.275 -27.1213 -88.731C-25.7093 -89.971 -24.2473 -91.248 -17.1863 -83.328L-7.14325 -65.629C-6.12825 -63.78 -3.23625 -65.34 -4.21925 -67.202C-6.87225 -74.356 -21.2963 -94.304 -16.0093 -101.079C-11.7513 -103.528 -7.10925 -93.73 -3.68525 -89.427C-3.68625 -89.427 5.97975 -71.869 5.97975 -71.869C6.39475 -71.118 7.33375 -70.812 8.11375 -71.192C8.92075 -71.585 9.25475 -72.558 8.86275 -73.364L0.159744 -91.222C-0.382256 -95.492 -1.91226 -104.335 3.42974 -104.741C10.5237 -104.575 20.5357 -77.74 23.8257 -68.922C23.9627 -66.895 23.3917 -64.162 22.2807 -62.488C16.3757 -56.841 11.7537 -47.343 15.3647 -39.301C15.9427 -38.069 17.9287 -38.88 17.4257 -40.18C17.2497 -40.66 16.9317 -41.151 17.0267 -41.647C17.1407 -42.244 15.8517 -52.519 22.4477 -57.425C24.2017 -58.73 26.4267 -60.035 27.0297 -62.157C27.9017 -64.371 28.1967 -66.585 28.2417 -68.938C27.7777 -77.684 33.4127 -88.611 36.2467 -85.968C45.4447 -55.459 57.3767 -5.43395 76.3017 40.582C76.5527 41.241 77.9517 43.903 78.5467 45.05C92.9197 74.812 112.312 96.373 136.219 109.821C148.371 116.656 161.62 121.387 176.179 124.093L177.395 119.975C131.678 111.674 98.9058 83.1561 77.8857 33.2941C77.7587 32.9911 77.6137 32.719 77.3997 32.25C60.4748 -11.373 48.9737 -59.764 39.8917 -88.161C33.8697 -95.541 27.3297 -86.321 25.0037 -77.75C18.3547 -94.643 11.2037 -108.816 3.52975 -108.993C-2.33125 -109.232 -4.62925 -103.449 -4.66525 -98.296C-12.2473 -110.798 -24.5803 -106.5 -20.7903 -92.448C-23.9793 -94.495 -26.8803 -94.601 -29.9263 -91.929C-34.0473 -88.313 -32.0593 -81.646 -29.9243 -77.056C-36.2773 -75.857 -38.5763 -70.73 -32.2663 -56.832C-17.6333 -26.688 -9.35826 -2.04895 -2.31326 28.007C-1.77726 30.294 -0.366254 34.808 0.482746 38.29C14.3647 95.311 40.2897 136.812 76.8137 168.975C100.965 190.243 127.096 203.902 149.89 213.125L151.108 208.999Z" fill="#141414"/></g><path id="T Shirt" fill-rule="evenodd" clip-rule="evenodd" d="M367.246 196.113C366.982 194.969 367.696 193.827 368.841 193.563C369.984 193.298 371.127 194.014 371.391 195.158L377.628 222.234C414.481 213.224 421.061 197.817 421.061 197.817C421.061 197.817 414.999 149 389.999 102C323.999 108 305.999 99 295.999 99C275.999 92 236.998 94.1729 214.999 101C185.999 110 181.999 112 148.454 107.957C144.47 124.509 123.116 167.285 103.371 201.207C116.999 210 129.392 214.23 154.296 220.934L155.688 199.963C155.766 198.792 156.784 197.918 157.951 197.982C159.122 198.06 160.01 199.073 159.932 200.245L158.134 227.348C158.131 227.388 158.12 227.424 158.115 227.463C156.184 304.653 153.657 394.247 153.657 394.247L409.687 390.247C409.687 390.247 382.587 277.174 374.114 225.91C374.111 225.897 374.105 225.886 374.102 225.873L367.246 196.113Z" fill="#ffc81a"/><g id="neck"><path id="Fill 30" fill-rule="evenodd" clip-rule="evenodd" d="M238.539 70.6416L234.773 105.805C234.773 105.805 242.2 121.902 264.984 123.005C295.722 124.492 289.289 105.447 289.289 105.447L288.434 73.6896" fill="white"/><path id="Fill 32" fill-rule="evenodd" clip-rule="evenodd" d="M264.888 125.002C241.166 123.854 233.282 107.345 232.958 106.643C232.807 106.315 232.747 105.951 232.785 105.592L236.552 70.4284C236.669 69.3304 237.661 68.5354 238.753 68.6524C239.851 68.7704 240.647 69.7564 240.529 70.8544L236.826 105.428C238.215 108.003 245.735 120.07 265.082 121.006C275.333 121.499 284.198 119.67 286.937 115.708C289.747 111.644 287.482 106.302 287.459 106.249C287.357 106.014 287.298 105.755 287.291 105.5L286.436 73.7444C286.406 72.6404 287.277 71.7204 288.382 71.6914C289.477 71.6494 290.405 72.5324 290.435 73.6364L291.28 105.034C291.892 106.647 293.818 112.747 290.252 117.947C286.999 122.69 278.281 125.086 268.26 125.086C267.175 125.086 266.051 125.058 264.888 125.002Z" fill="#141414"/></g></g></g><g id="Head" transform="translate(439 92) scale(1 1)"><g id="Head/Bun 1"><path id="SKIN" fill-rule="evenodd" clip-rule="evenodd" d="M149.882 102.094C143.885 52.3538 111.153 49.4878 87.5365 53.7808C68.7135 57.2038 44.6345 72.7648 46.7665 104.073C37.3415 101.013 30.4605 106.742 29.2365 114.189C27.8495 122.64 32.2855 136.935 46.2375 134.473C49.2925 158.699 66.0495 186.607 111.579 181.938C146.05 178.402 155.34 147.368 149.882 102.094" fill="white"/><path id="Combined Shape" fill-rule="evenodd" clip-rule="evenodd" d="M48.2218 134.223C50.0038 147.852 56.1648 161.361 67.2638 169.967C80.2308 182.118 123.203 187.006 138.219 166.456C150.998 153.433 152.906 108.249 143.117 82.1546C136.341 82.9006 125.94 83.7646 116.458 83.3946C114.284 80.3254 111.939 74.4372 110.251 70.2005C109.438 68.1591 108.778 66.5011 108.363 65.7266C107.149 67.3883 108.797 76.1561 109.788 81.4324C109.982 82.462 110.15 83.3587 110.268 84.0436C97.0758 90.4936 68.8828 93.7306 53.0198 90.8096C52.8477 93.8559 53.3909 97.1587 53.8662 100.049C54.9346 106.546 55.6603 110.959 47.1488 105.69C33.7148 97.3736 26.8068 119.976 36.0728 128.937C41.1758 133.873 44.9738 134.217 48.2218 134.223ZM68.0298 20.0796C63.1798 22.1526 50.3648 27.8466 50.1838 33.2466C71.0618 15.7416 140.214 7.6086 161.314 70.6596C168.06 92.5106 172.203 170.211 170.874 177.185C159.948 179.461 143.566 181.963 128.953 181.631C128.698 180.908 128.536 180.137 128.41 179.347C110.504 187.697 84.463 186.383 69 176C69.4059 179.508 69.358 181.906 69.3227 183.671C69.2949 185.064 69.275 186.062 69.4918 186.9C54.2508 189.358 31.6008 183.212 31.6008 183.212C31.6008 183.212 -7.27916 103.685 29.5848 57.1906C20.9498 55.1986 2.86084 42.6746 15.1488 16.7706C24.6558 -3.2704 58.7758 -3.6294 68.0298 20.0796ZM43.8325 118.933C43.6189 119.964 43.4228 120.91 42.3775 120.698C39.1875 120.05 38.7805 115.497 41.6905 114.023C44.0785 112.814 44.8125 115.511 44.0495 118.022C43.9606 118.314 43.8958 118.627 43.8325 118.933Z" fill="#141414"/></g></g><g id="Face" transform="translate(499 178) scale(1 1)"><g id="Face/Happy"><path id="Happy" fill-rule="evenodd" clip-rule="evenodd" d="M28.2306 19.1149C27.9276 19.0909 27.4006 19.0529 26.9546 19.0459C26.6004 19.0306 26.2392 19.0399 25.8777 19.0491C25.7656 19.0519 25.6535 19.0548 25.5416 19.0569C24.5906 19.1039 23.6326 19.1709 22.6836 19.3199C20.7916 19.6309 18.8906 20.0459 17.0996 20.7939C15.3156 21.5319 13.5216 22.3529 11.9156 23.5119C10.3495 24.4885 8.95584 25.7236 7.53129 26.986L7.2006 27.2789L7.1066 27.3619C6.5836 27.8259 5.7816 27.7769 5.3176 27.2529C4.9206 26.8039 4.8996 26.1509 5.2316 25.6809C5.35826 25.502 5.48428 25.3217 5.61063 25.141C6.12273 24.4085 6.64007 23.6685 7.2256 22.9819C7.40976 22.7841 7.59172 22.5831 7.77402 22.3817L7.77412 22.3816C8.35009 21.7454 8.92952 21.1054 9.5926 20.5479C11.2736 19.0099 13.2106 17.7219 15.2756 16.6899C17.3466 15.6659 19.5596 14.8869 21.8466 14.4659C22.9886 14.2479 24.1466 14.0949 25.3156 14.0269C25.4029 14.0245 25.4902 14.022 25.5774 14.0194C26.0776 14.0048 26.5774 13.9902 27.0866 14.0089C27.7016 14.0179 28.2356 14.0559 28.9866 14.1589C30.3556 14.3469 31.3126 15.6099 31.1246 16.9779C30.9436 18.2969 29.7666 19.2339 28.4566 19.1329L28.2306 19.1149ZM75.1516 34.2331L75.1518 34.2333C75.311 34.3531 75.4613 34.4662 75.5939 34.5578L75.9109 34.7778C76.3449 35.0758 76.9209 35.1428 77.4319 34.9038C78.1989 34.5438 78.5299 33.6308 78.1699 32.8638C77.7989 32.0708 77.4159 31.5258 76.9419 30.9228C76.4709 30.3458 75.9229 29.8268 75.3219 29.3548C74.1049 28.4208 72.6519 27.7598 71.0739 27.4608C69.4989 27.1608 67.7849 27.2648 66.2629 27.8108C64.7239 28.3298 63.4249 29.2648 62.3939 30.3228C61.7669 30.9658 61.6329 31.9778 62.1289 32.7748C62.7129 33.7128 63.9459 33.9988 64.8839 33.4148L64.9939 33.3468C65.8869 32.7908 66.7609 32.3488 67.6369 32.1258C68.5109 31.8798 69.3859 31.8518 70.2919 31.9678C71.1909 32.1238 72.1249 32.4158 73.0069 32.8758C73.4559 33.0988 73.9009 33.3648 74.3399 33.6578C74.6089 33.8245 74.892 34.0377 75.1516 34.2331ZM15.3559 33.1489C14.7779 33.8689 14.2989 34.5439 13.8429 35.4509C13.5609 36.0129 13.6899 36.7149 14.1939 37.1339C14.7799 37.6229 15.6529 37.5439 16.1409 36.9569L16.2449 36.8319C16.6249 36.3769 17.1549 35.8029 17.6759 35.3659C18.2069 34.9119 18.7589 34.4969 19.3429 34.1719C20.5099 33.5159 21.7289 33.1369 22.9569 33.1219C23.2679 33.1219 23.5629 33.1339 23.8859 33.1719C24.0074 33.1897 24.1309 33.2013 24.2541 33.2129C24.4637 33.2326 24.6724 33.2522 24.8689 33.3019C25.5169 33.3989 26.1039 33.6059 26.6549 33.8319C27.2089 34.0499 27.6909 34.3549 28.1089 34.6979L28.1793 34.7601C28.3569 34.9166 28.5327 35.0714 28.6749 35.2419C28.7544 35.3279 28.821 35.4172 28.8844 35.5021L28.8999 35.5229L28.9889 35.6479C28.9955 35.6549 29.0061 35.6721 29.0147 35.686C29.0293 35.7099 29.038 35.724 29.0109 35.6609C29.5219 36.8059 30.8639 37.3199 32.0099 36.8089C33.1549 36.2979 33.6679 34.9559 33.1569 33.8109C33.0454 33.569 32.9922 33.4763 32.9243 33.3582L32.9243 33.3582L32.8909 33.2999C32.8277 33.1864 32.7665 33.0933 32.7026 32.9962L32.7026 32.9961L32.6807 32.9629L32.6539 32.9219C32.4899 32.6889 32.3219 32.4649 32.1429 32.2599C31.7879 31.8419 31.4029 31.4719 30.9899 31.1399C30.1599 30.4899 29.2469 29.9779 28.3059 29.6319C27.3619 29.3069 26.4009 29.0749 25.4599 28.9929C25.1383 28.9442 24.8236 28.9348 24.5093 28.9255C24.3593 28.9211 24.2094 28.9166 24.0589 28.9079C23.5839 28.9009 23.0799 28.9419 22.5939 29.0009C20.6349 29.2639 18.7769 30.0669 17.3229 31.2359C16.5879 31.8099 15.9319 32.4529 15.3559 33.1489ZM62.3409 14.7222C61.7589 14.8522 61.2579 14.9932 60.5749 15.2282C59.3989 15.6382 58.7229 16.9002 59.0639 18.1152C59.4179 19.3782 60.7289 20.1162 61.9929 19.7612L62.1749 19.7102C62.4729 19.6262 62.9709 19.5002 63.3969 19.4102C63.8399 19.3092 64.2949 19.2352 64.7519 19.1652L66.1299 18.9912L67.5179 18.9022C69.3719 18.8482 71.2289 18.9972 73.0269 19.4162C74.8229 19.8362 76.5779 20.4692 78.2249 21.3712C79.7834 22.1207 81.1811 23.1734 82.6181 24.2557L82.6202 24.2573C82.7527 24.3571 82.8856 24.4571 83.0189 24.5572L83.1219 24.6352C83.6039 24.9972 84.2849 25.0072 84.7829 24.6202C85.3809 24.1562 85.4889 23.2962 85.0239 22.6992C84.6889 22.2682 84.3369 21.8462 83.9819 21.4242C83.8828 21.3106 83.7865 21.1938 83.6901 21.0769L83.6897 21.0764C83.4332 20.7652 83.1758 20.453 82.8619 20.1972C82.693 20.0451 82.5254 19.8905 82.3574 19.7354C81.7047 19.133 81.046 18.5252 80.2849 18.0432C78.4679 16.6972 76.3519 15.7482 74.1699 15.1012C71.9859 14.4432 69.6999 14.0942 67.4269 14.1352C66.2909 14.1592 65.1539 14.2112 64.0279 14.3992C63.4659 14.4912 62.9029 14.5892 62.3409 14.7222ZM49.8507 33.5661C49.9857 35.7441 50.2307 37.9171 50.7947 39.7871C50.9457 40.2411 51.1127 40.6851 51.3017 41.0401C51.4857 41.3961 51.7177 41.6741 51.8387 41.7411C52.0857 41.9211 52.5727 42.2431 53.0317 42.5291C53.5057 42.8291 54.0127 43.1521 54.5267 43.5211C55.5277 44.2751 56.6517 45.2241 57.3767 46.7691C57.6997 47.5551 57.9277 48.3791 57.8467 49.4021C57.7707 50.4071 57.2947 51.3651 56.7367 51.9991C55.6067 53.2931 54.3797 53.8321 53.2447 54.3281C52.0907 54.7841 50.9707 55.1141 49.8537 55.3671C49.0097 55.5591 48.1707 55.0301 47.9797 54.1861C47.8167 53.4661 48.1767 52.7511 48.8097 52.4371L48.8177 52.4331C49.1421 52.272 49.4659 52.1169 49.7854 51.9638L49.7855 51.9638C50.4477 51.6465 51.0914 51.338 51.6837 51.0041C52.5557 50.5381 53.3537 49.9641 53.6657 49.5191C53.8213 49.2918 53.8326 49.1817 53.8446 49.0661L53.8447 49.0651C53.8567 48.9661 53.7887 48.6711 53.6807 48.4311C53.4677 47.9181 52.8827 47.2931 52.1167 46.6951C51.7357 46.3871 51.3147 46.0811 50.8587 45.7541C50.7412 45.6669 50.624 45.5836 50.5047 45.499C50.1511 45.2479 49.7799 44.9844 49.3327 44.5671C48.6197 43.8781 48.2727 43.1671 47.9977 42.5051C47.7217 41.8371 47.5877 41.1951 47.4717 40.5621C47.0527 38.0461 47.2987 35.6771 47.7847 33.3941C47.9047 32.8291 48.4597 32.4691 49.0237 32.5891C49.4937 32.6891 49.8217 33.0891 49.8497 33.5451L49.8507 33.5661ZM34.3663 68.3769C39.5273 71.3069 60.7703 70.7559 67.5133 66.4909C68.1083 64.4579 67.3563 63.5219 67.3563 63.5219C67.3563 63.5219 47.4373 66.4319 34.3803 64.8919C34.3803 64.8919 33.9463 67.5379 34.3663 68.3769ZM68.0263 60.2979C69.4483 60.0149 70.7503 60.5149 71.5093 61.6299C74.5893 68.6889 64.8293 80.1889 50.8123 80.1239C41.4983 80.6109 30.2033 74.9489 29.7223 68.5269C29.2853 65.7529 31.7743 61.0039 35.6163 61.7009C38.3533 62.1969 44.8963 62.3799 51.2903 62.1519C59.6542 61.8579 67.6242 60.3728 68.0121 60.3005C68.02 60.2991 68.0247 60.2982 68.0263 60.2979Z" fill="#141414"/></g></g><g id="Accessories" transform="translate(491 176) scale(103 60)"><g id="Accessories/None" stroke="none" stroke-width="1" fill="none" fill-rule="evenodd" fill-opacity="0"/></g><g id="Facial Hair" transform="translate(501 234) scale(90 60)"><g id="Facial Hair/None" stroke="none" stroke-width="1" fill="none" fill-rule="evenodd" fill-opacity="0"/></g></g></g><g id="Seat" transform="translate(262 868) scale(1.0636493535004845 1.0636493389423076)"><g id="Seat/Bench"><g id="Chair"><path id="Fill 1" fill-rule="evenodd" clip-rule="evenodd" d="M173.653 399.414L108.762 632H136.543L231.465 399.414H173.653Z" fill="#FF4B33"/><path id="Fill 2" fill-rule="evenodd" clip-rule="evenodd" d="M440.148 399.414L545.266 632.414H563.032L499.369 399.414H440.148Z" fill="#FF4B33"/><path id="Path" fill-rule="evenodd" clip-rule="evenodd" d="M501.255 402.388H167.24C166.397 402.388 165.644 401.859 165.358 401.066C164.485 398.64 77.5138 157.125 34.8978 37.8012C30.3708 25.1252 34.1008 14.2822 44.3998 10.1762C63.0888 2.7292 105.054 18.8112 138.099 93.6882L220.811 307.133H501.255C502.359 307.133 503.255 308.029 503.255 309.133V400.388C503.255 401.492 502.359 402.388 501.255 402.388" fill="#141414"/><path id="Path_2" fill-rule="evenodd" clip-rule="evenodd" d="M168.647 398.388H499.256V311.133H219.442C218.616 311.133 217.876 310.625 217.577 309.856L134.405 95.2192C104.229 26.8452 64.4705 6.4802 45.8825 13.8922C37.6355 17.1802 34.8705 25.8262 38.6665 36.4552C79.6395 151.18 161.617 378.865 168.647 398.388" fill="white"/></g></g></g><g id="Master/Character/Sitting" transform="translate(53.0586 500) scale(1 1)"><g id="Master/Character/Sitting"><g id="Lower Body Sit" transform="translate(264 454) scale(1 1)"><g id="Lower Body Sit/Sitting"><g id="Sitting"><g id="Assets 38"><path id="SKIN" fill-rule="evenodd" clip-rule="evenodd" d="M521.7 491.689L535.26 542.336L605.766 548.21L601.875 499.08" fill="white"/><path id="Fill 2" fill-rule="evenodd" clip-rule="evenodd" d="M605.768 550.208C605.712 550.208 605.657 550.206 605.601 550.201L535.094 544.329C534.55 544.284 534.049 544.019 533.705 543.595C533.363 543.171 533.207 542.625 533.276 542.084L519.716 491.437C519.856 490.339 520.876 489.564 521.953 489.704C523.048 489.844 523.824 490.845 523.685 491.94L537.507 540.517L604.359 546.084L599.975 498.456C600.319 497.407 601.446 496.833 602.498 497.179C603.548 497.522 604.12 498.652 603.776 499.702L607.667 548.831C607.397 549.658 606.625 550.208 605.768 550.208" fill="#141414"/><path id="Fill 4" fill-rule="evenodd" clip-rule="evenodd" d="M532.376 539.599C532.634 538.582 533.634 537.939 534.667 538.123C535.65 538.3 536.895 538.539 538.36 538.822C547.342 540.55 566.031 544.147 583.742 544.161H583.787C594.221 544.161 603.397 541.307 609.625 536.122C610.12 535.71 610.782 535.564 611.408 535.724C641.806 543.638 663.769 549.356 680.045 560.211C682.905 562.12 693.222 570.448 691.437 576.338C690.612 579.062 687.674 580.443 682.704 580.443C664.56 580.443 625.469 580.544 590.98 580.634C563.073 580.707 538.973 580.77 529.899 580.77C528.94 580.77 528.075 580.335 527.462 579.546C523.889 574.95 529.708 550.078 532.376 539.599" fill="#2bd302"/><path id="Fill 6" fill-rule="evenodd" clip-rule="evenodd" d="M530.264 589.577H687.101C689.707 589.577 691.82 587.464 691.82 584.857V583.298C691.82 580.691 689.707 578.579 687.101 578.579H530.264C527.659 578.579 525.545 580.691 525.545 583.298V584.857C525.545 587.464 527.659 589.577 530.264 589.577" fill="#141414"/><path id="Fill 8" fill-rule="evenodd" clip-rule="evenodd" d="M642.56 554.567C643.355 554.567 644.117 554.12 644.481 553.354C647.818 546.346 654.229 548.061 654.95 548.282C656.068 548.621 657.257 547.996 657.605 546.88C657.952 545.762 657.337 544.577 656.223 544.223C652.587 543.069 644.649 543.111 640.641 551.526C640.136 552.587 640.586 553.855 641.647 554.36C641.942 554.501 642.253 554.567 642.56 554.567" fill="#141414"/><path id="Fill 10" fill-rule="evenodd" clip-rule="evenodd" d="M623.778 549.444C624.573 549.444 625.336 548.997 625.7 548.231C629.037 541.223 635.448 542.938 636.168 543.159C637.287 543.499 638.476 542.873 638.823 541.757C639.17 540.639 638.555 539.454 637.441 539.1C633.801 537.947 625.865 537.99 621.86 546.403C621.355 547.464 621.805 548.732 622.866 549.237C623.161 549.378 623.471 549.444 623.778 549.444" fill="#141414"/></g><g id="Assets 39"><path id="SKIN_2" fill-rule="evenodd" clip-rule="evenodd" d="M354.859 492.695L348.419 543.342L418.925 549.216L435.034 500.086" fill="white"/><path id="Fill 14" fill-rule="evenodd" clip-rule="evenodd" d="M418.926 551.214C418.87 551.214 418.815 551.212 418.759 551.207L348.252 545.335C347.708 545.29 347.207 545.025 346.863 544.601C346.521 544.177 346.365 543.631 346.434 543.09L352.874 492.443C353.014 491.345 354.034 490.57 355.111 490.71C356.206 490.85 356.982 491.851 356.843 492.946L350.665 541.523L417.517 547.09L433.133 499.462C433.477 498.413 434.604 497.839 435.656 498.185C436.706 498.528 437.278 499.658 436.934 500.708L420.825 549.837C420.555 550.664 419.783 551.214 418.926 551.214" fill="#141414"/><path id="Fill 16" fill-rule="evenodd" clip-rule="evenodd" d="M345.534 540.605C345.792 539.588 346.792 538.945 347.825 539.129C348.808 539.306 350.053 539.545 351.518 539.828C360.5 541.556 379.189 545.153 396.9 545.167H396.945C407.379 545.167 416.555 542.313 422.783 537.128C423.278 536.716 423.94 536.57 424.566 536.73C454.964 544.644 476.927 550.362 493.203 561.217C496.063 563.126 506.38 571.454 504.596 577.344C503.77 580.068 500.832 581.449 495.862 581.449C477.718 581.449 438.627 581.55 404.138 581.64C376.231 581.713 352.131 581.776 343.057 581.776C342.098 581.776 341.233 581.341 340.62 580.552C337.047 575.956 342.866 551.084 345.534 540.605" fill="#2bd302"/><path id="Fill 18" fill-rule="evenodd" clip-rule="evenodd" d="M343.422 590.583H500.259C502.865 590.583 504.978 588.47 504.978 585.863V584.304C504.978 581.697 502.865 579.585 500.259 579.585H343.422C340.817 579.585 338.703 581.697 338.703 584.304V585.863C338.703 588.47 340.817 590.583 343.422 590.583" fill="#141414"/><path id="Fill 21" fill-rule="evenodd" clip-rule="evenodd" d="M455.718 555.572C456.513 555.572 457.275 555.125 457.639 554.359C460.976 547.351 467.387 549.066 468.108 549.287C469.226 549.626 470.415 549.001 470.763 547.885C471.11 546.767 470.495 545.582 469.381 545.228C465.745 544.074 457.807 544.116 453.799 552.531C453.294 553.592 453.744 554.86 454.805 555.365C455.1 555.506 455.411 555.572 455.718 555.572" fill="#141414"/><path id="Fill 23" fill-rule="evenodd" clip-rule="evenodd" d="M436.937 550.45C437.732 550.45 438.495 550.003 438.859 549.237C442.196 542.229 448.607 543.944 449.327 544.165C450.446 544.505 451.635 543.879 451.982 542.763C452.329 541.645 451.714 540.46 450.6 540.106C446.96 538.953 439.024 538.996 435.019 547.409C434.514 548.47 434.964 549.738 436.025 550.243C436.32 550.384 436.63 550.45 436.937 550.45" fill="#141414"/></g><g id="Pant 2"><path id="Fill 25" fill-rule="evenodd" clip-rule="evenodd" d="M472.057 120H357.391C327.02 120 435.016 255.826 435.016 255.826C435.54 268.396 436.998 495.136 436.998 495.136C510.551 510.252 570.338 514.593 620.763 506.561C620.763 506.561 594.334 309.901 572.444 196.945C561.108 138.45 512.953 120 472.057 120" fill="#141414"/><g id="Combined Shape"><path fill-rule="evenodd" clip-rule="evenodd" d="M498.197 273.613C499.287 273.436 500.027 272.408 499.849 271.318L497.924 259.473C497.747 258.383 496.726 257.644 495.629 257.82C494.539 257.997 493.799 259.025 493.976 260.115L495.902 271.96C496.061 272.942 496.91 273.639 497.873 273.639C497.98 273.639 498.088 273.631 498.197 273.613ZM502.049 297.302C503.139 297.125 503.879 296.098 503.701 295.007L501.776 283.163C501.599 282.073 500.581 281.334 499.481 281.51C498.391 281.687 497.651 282.715 497.828 283.804L499.754 295.65C499.913 296.631 500.762 297.328 501.725 297.328C501.832 297.328 501.94 297.321 502.049 297.302ZM522.957 413.451C523.135 414.542 522.395 415.569 521.305 415.746C521.196 415.765 521.088 415.772 520.982 415.772C520.018 415.772 519.169 415.075 519.01 414.094L517.084 402.25C516.907 401.159 517.647 400.132 518.737 399.955C519.827 399.773 520.855 400.517 521.032 401.607L522.957 413.451ZM525.156 439.436C526.246 439.259 526.986 438.232 526.808 437.141L524.883 425.296C524.706 424.206 523.679 423.462 522.588 423.644C521.498 423.821 520.758 424.848 520.935 425.939L522.861 437.784C523.02 438.765 523.869 439.462 524.833 439.462C524.939 439.462 525.047 439.455 525.156 439.436ZM536.71 510.502C537.8 510.325 538.54 509.298 538.362 508.207L536.437 496.363C536.26 495.273 535.243 494.523 534.142 494.711C533.052 494.888 532.312 495.915 532.489 497.006L534.415 508.85C534.574 509.831 535.423 510.528 536.387 510.528C536.493 510.528 536.601 510.521 536.71 510.502ZM532.858 486.814C533.948 486.637 534.688 485.61 534.51 484.519L532.585 472.674C532.408 471.584 531.38 470.838 530.29 471.022C529.2 471.199 528.46 472.226 528.637 473.317L530.563 485.162C530.722 486.143 531.571 486.84 532.535 486.84C532.641 486.84 532.749 486.833 532.858 486.814ZM530.659 460.829C530.837 461.92 530.097 462.947 529.007 463.124C528.898 463.143 528.79 463.15 528.684 463.15C527.72 463.15 526.871 462.453 526.712 461.472L524.787 449.628C524.61 448.537 525.35 447.51 526.44 447.333C527.528 447.149 528.558 447.895 528.735 448.985L530.659 460.829ZM507.551 318.695C507.729 319.786 506.989 320.813 505.899 320.99C505.79 321.009 505.682 321.016 505.576 321.016C504.612 321.016 503.763 320.319 503.604 319.338L501.678 307.494C501.501 306.403 502.241 305.376 503.331 305.199C504.43 305.012 505.449 305.761 505.626 306.851L507.551 318.695ZM519.105 389.763C519.283 390.854 518.543 391.881 517.453 392.058C517.344 392.077 517.236 392.084 517.13 392.084C516.166 392.084 515.317 391.387 515.158 390.406L513.232 378.561C513.055 377.47 513.795 376.443 514.885 376.266C515.974 376.081 517.003 376.828 517.18 377.918L519.105 389.763ZM509.751 344.68C510.841 344.503 511.581 343.476 511.403 342.385L509.478 330.54C509.301 329.45 508.272 328.705 507.183 328.888C506.093 329.065 505.353 330.092 505.53 331.183L507.456 343.028C507.615 344.009 508.464 344.706 509.428 344.706C509.534 344.706 509.642 344.699 509.751 344.68ZM515.255 366.073C515.433 367.164 514.693 368.191 513.603 368.368C513.494 368.387 513.386 368.394 513.28 368.394C512.316 368.394 511.467 367.697 511.308 366.716L509.382 354.872C509.205 353.781 509.945 352.754 511.035 352.577C512.134 352.391 513.153 353.139 513.33 354.229L515.255 366.073Z" fill="white" fill-opacity="0.8" style="mix-blend-mode:overlay"/></g></g><g id="Pant 1"><path id="Fill 1" fill-rule="evenodd" clip-rule="evenodd" d="M394.453 120H162.768C162.768 120 139.333 203.554 186.939 249.256C230.816 291.379 331.095 276.308 352.09 272.593L355.538 250.897C355.711 249.806 356.749 249.064 357.827 249.235C358.917 249.409 359.662 250.434 359.489 251.525L355.932 273.906C354.257 299.842 322.931 513.136 322.931 513.136C382.761 530.69 459.88 532.324 499.943 524.561C499.943 524.561 500.676 324.292 492.645 201.026C489.188 147.972 447.017 120 394.453 120Z" fill="#0B379B"/><g id="Combined Shape_2"><path fill-rule="evenodd" clip-rule="evenodd" d="M201.133 132.369C200.718 128.867 200.685 126.626 200.685 126.603C200.671 125.508 199.778 124.629 198.685 124.629H198.66C197.556 124.642 196.672 125.548 196.685 126.652C196.686 126.75 196.718 129.107 197.16 132.84C197.281 133.857 198.145 134.604 199.144 134.604C199.223 134.604 199.302 134.6 199.382 134.591C200.479 134.461 201.263 133.466 201.133 132.369ZM385.308 442.829C384.218 442.744 383.246 443.57 383.163 444.673C382.854 448.765 382.549 452.764 382.251 456.652C382.167 457.753 382.992 458.715 384.093 458.799C384.145 458.803 384.197 458.805 384.247 458.805C385.283 458.805 386.16 458.007 386.24 456.957C386.537 453.068 386.842 449.067 387.152 444.974C387.235 443.873 386.41 442.912 385.308 442.829ZM379.436 492.594C379.523 491.493 380.482 490.683 381.588 490.759C382.69 490.848 383.511 491.812 383.423 492.912C383.068 497.341 382.745 501.359 382.458 504.899C382.373 505.945 381.498 506.737 380.467 506.737C380.44 506.737 380.414 506.736 380.386 506.735L380.36 506.734L380.341 506.733C380.329 506.732 380.316 506.731 380.303 506.73C379.202 506.641 378.382 505.676 378.472 504.574C378.759 501.036 379.082 497.021 379.436 492.594ZM383.475 466.793C382.371 466.721 381.412 467.53 381.326 468.632C381 472.807 380.687 476.811 380.387 480.612C380.3 481.714 381.122 482.677 382.224 482.764C382.243 482.766 382.262 482.767 382.281 482.768C382.303 482.769 382.325 482.769 382.347 482.77C382.359 482.77 382.371 482.77 382.383 482.77C383.416 482.77 384.292 481.975 384.375 480.927C384.675 477.123 384.989 473.119 385.314 468.942C385.4 467.841 384.577 466.879 383.475 466.793ZM388.311 372.783C388.384 371.682 389.323 370.826 390.44 370.922C391.542 370.995 392.376 371.948 392.301 373.051C392.034 377.048 391.762 381.052 391.487 385.048C391.415 386.103 390.536 386.91 389.494 386.91C389.448 386.91 389.401 386.908 389.354 386.905C388.252 386.829 387.42 385.875 387.497 384.773C387.772 380.779 388.044 376.778 388.311 372.783ZM380.171 226.516C380.9 226.516 381.601 226.117 381.954 225.424C382.456 224.44 382.066 223.236 381.082 222.734C377.875 221.098 374.145 219.404 369.994 217.697C368.971 217.276 367.803 217.766 367.384 218.787C366.964 219.808 367.451 220.976 368.473 221.396C372.524 223.062 376.154 224.711 379.264 226.297C379.555 226.446 379.865 226.516 380.171 226.516ZM384.944 420.715C385.025 419.613 385.977 418.793 387.085 418.865C388.187 418.946 389.015 419.904 388.935 421.006C388.638 425.055 388.343 429.056 388.049 432.991C387.971 434.042 387.094 434.842 386.057 434.842C386.032 434.842 386.007 434.842 385.982 434.841L385.957 434.84C385.94 434.839 385.923 434.838 385.905 434.836C384.804 434.754 383.978 433.794 384.061 432.692C384.355 428.76 384.649 424.762 384.944 420.715ZM388.799 394.899C387.713 394.835 386.742 395.653 386.664 396.754C386.382 400.771 386.098 404.769 385.813 408.734C385.734 409.836 386.563 410.794 387.664 410.873C387.688 410.874 387.711 410.875 387.734 410.876C387.747 410.877 387.759 410.877 387.772 410.877C387.785 410.877 387.797 410.878 387.81 410.878C388.849 410.878 389.727 410.074 389.803 409.021C390.088 405.054 390.372 401.054 390.654 397.034C390.732 395.932 389.902 394.976 388.799 394.899ZM231.305 177.892C234.019 178.819 237.754 179.929 242.722 181.286C243.788 181.577 244.415 182.677 244.124 183.742C243.882 184.631 243.076 185.216 242.196 185.216C242.022 185.216 241.845 185.193 241.668 185.144C236.618 183.765 232.806 182.631 230.013 181.677C228.968 181.32 228.409 180.183 228.766 179.138C229.123 178.093 230.259 177.535 231.305 177.892ZM203.316 143.869C203.033 142.801 201.94 142.167 200.871 142.447C199.803 142.73 199.167 143.825 199.449 144.892C200.543 149.027 201.925 152.936 203.556 156.512C203.892 157.247 204.618 157.682 205.377 157.682C205.654 157.682 205.937 157.624 206.206 157.501C207.211 157.043 207.653 155.856 207.195 154.851C205.658 151.481 204.353 147.786 203.316 143.869ZM254.319 184.338C257.973 185.275 261.874 186.261 265.964 187.29C267.035 187.56 267.685 188.646 267.416 189.717C267.188 190.625 266.373 191.23 265.478 191.23C265.316 191.23 265.152 191.21 264.988 191.169C260.891 190.139 256.985 189.151 253.325 188.212C252.256 187.938 251.61 186.848 251.885 185.778C252.159 184.708 253.247 184.061 254.319 184.338ZM391.986 346.959C390.904 346.894 389.934 347.729 389.865 348.83C389.616 352.798 389.361 356.798 389.099 360.814C389.028 361.917 389.863 362.868 390.965 362.94C391.009 362.943 391.053 362.944 391.097 362.944C392.142 362.944 393.022 362.132 393.091 361.074C393.353 357.054 393.608 353.052 393.857 349.08C393.926 347.978 393.089 347.028 391.986 346.959ZM347.244 209.484C351.299 210.8 355.147 212.108 358.681 213.374C359.721 213.746 360.262 214.891 359.89 215.931C359.598 216.748 358.827 217.257 358.007 217.257C357.784 217.257 357.556 217.22 357.333 217.14C353.836 215.888 350.027 214.592 346.01 213.289C344.959 212.948 344.384 211.82 344.725 210.77C345.066 209.719 346.192 209.145 347.244 209.484ZM335.729 205.891C332.083 204.793 328.19 203.656 324.163 202.511C323.099 202.208 321.994 202.826 321.692 203.888C321.39 204.951 322.006 206.057 323.069 206.359C327.077 207.498 330.949 208.629 334.577 209.721C334.768 209.779 334.962 209.807 335.154 209.807C336.013 209.807 336.807 209.248 337.068 208.383C337.386 207.325 336.787 206.209 335.729 205.891ZM300.934 196.192C304.791 197.204 308.677 198.237 312.557 199.291C313.623 199.581 314.253 200.679 313.963 201.745C313.722 202.636 312.915 203.222 312.034 203.222C311.861 203.222 311.684 203.199 311.509 203.151C307.64 202.101 303.766 201.07 299.919 200.062C298.851 199.781 298.212 198.688 298.492 197.62C298.772 196.551 299.863 195.915 300.934 196.192ZM289.284 193.179C285.319 192.165 281.42 191.179 277.625 190.222C276.551 189.949 275.466 190.601 275.197 191.673C274.927 192.744 275.576 193.831 276.647 194.101C280.439 195.056 284.333 196.042 288.293 197.054C288.459 197.096 288.626 197.117 288.79 197.117C289.682 197.117 290.495 196.516 290.726 195.612C291 194.542 290.354 193.452 289.284 193.179ZM392.749 235.911C391.915 234.813 390.687 233.607 389.135 232.378C388.27 231.692 388.123 230.434 388.81 229.568C389.495 228.702 390.753 228.557 391.619 229.242C393.435 230.681 394.9 232.128 395.974 233.545C396.569 234.361 397.205 235.83 397.602 240.773C397.691 241.874 396.869 242.838 395.769 242.926C395.714 242.931 395.66 242.933 395.607 242.933C394.574 242.933 393.699 242.139 393.615 241.093C393.277 236.885 392.803 235.998 392.749 235.911ZM396.004 250.921H395.996C394.892 250.924 394 251.824 394.004 252.928L394.007 254.546C394.007 257.607 393.968 261.09 393.892 264.9C393.87 266.005 394.747 266.919 395.852 266.941H395.893C396.979 266.941 397.869 266.072 397.892 264.98C397.968 261.145 398.007 257.633 398.007 254.546L398.004 252.913C398 251.812 397.106 250.921 396.004 250.921ZM393.566 276.89C393.603 275.786 394.543 274.905 395.631 274.957C396.735 274.994 397.6 275.919 397.564 277.022C397.437 280.848 397.282 284.866 397.108 289.05C397.063 290.125 396.177 290.966 395.11 290.966C395.103 290.966 395.097 290.966 395.09 290.966C395.082 290.966 395.075 290.966 395.067 290.965L395.031 290.964L395.026 290.964C393.922 290.918 393.065 289.985 393.111 288.882C393.286 284.711 393.439 280.703 393.566 276.89ZM393.411 322.972C392.296 322.92 391.363 323.753 391.301 324.856C391.077 328.794 390.844 332.795 390.6 336.843C390.534 337.946 391.374 338.894 392.476 338.959C392.517 338.962 392.558 338.963 392.599 338.963C393.648 338.963 394.529 338.145 394.593 337.083C394.836 333.03 395.071 329.025 395.295 325.082C395.357 323.98 394.514 323.034 393.411 322.972ZM392.568 300.875C392.621 299.771 393.556 298.929 394.663 298.974C395.767 299.028 396.617 299.965 396.564 301.069C396.375 304.97 396.172 308.979 395.955 313.078C395.898 314.145 395.016 314.972 393.96 314.972C393.924 314.972 393.889 314.971 393.852 314.969C392.749 314.911 391.902 313.969 391.961 312.867C392.178 308.774 392.381 304.771 392.568 300.875ZM379.712 513.97C378.605 513.868 377.645 514.699 377.555 515.799L377.06 521.773C376.968 522.873 377.785 523.841 378.886 523.933C378.942 523.938 378.999 523.94 379.055 523.94C380.084 523.94 380.958 523.151 381.046 522.107L381.541 516.127C381.632 515.027 380.813 514.061 379.712 513.97ZM237.527 126.377C237.576 126.765 238.71 136.012 236.87 146.34C234.604 159.057 228.759 167.757 219.904 171.739C220.017 171.83 220.13 171.921 220.243 172.012C220.551 172.261 220.858 172.509 221.175 172.739C222.069 173.388 222.267 174.639 221.618 175.532C221.227 176.071 220.617 176.357 219.998 176.357C219.591 176.357 219.18 176.233 218.825 175.975C215.526 173.58 212.521 170.625 209.892 167.192C209.221 166.315 209.388 165.059 210.265 164.388C211.142 163.717 212.398 163.883 213.068 164.76C214.166 166.194 215.343 167.523 216.574 168.764C237.611 161.317 233.602 127.225 233.558 126.878C233.42 125.782 234.197 124.782 235.292 124.644C236.391 124.511 237.388 125.281 237.527 126.377Z" fill="white" fill-opacity="0.8" style="mix-blend-mode:overlay"/></g></g></g></g></g><g id="Upper Body" transform="translate(272 187) scale(1 1)"><g id="Upper Body/Holding Document"><g id="hand 1"><path id="SKIN" fill-rule="evenodd" clip-rule="evenodd" d="M421.092 125.995C423.323 120.141 432.848 128.635 434.522 140.152C436.409 129.754 440.786 104.606 448.461 103.039C456.217 101.457 455.775 116.588 455.775 116.588C458.975 109.54 462.338 100.573 467.484 103.38C473.028 106.405 468.696 119.698 468.696 119.698C473.565 111.717 476.06 110.588 479.317 112.55C484.53 115.691 479.338 127.931 479.338 127.931C483.17 123.743 490.564 125.097 486.097 140.99C481.17 158.52 471.797 195.819 473.536 236.035C473.785 241.78 436.17 261.77 402 261.436C416.815 202.08 418.205 133.571 421.092 125.995" fill="white"/><path id="Fill 4" fill-rule="evenodd" clip-rule="evenodd" d="M403.435 246.661C412.974 203.082 415.539 153.789 419.309 125.317C423.451 117.852 430.682 124.947 434.094 132.139C437.279 116.182 441.338 102.545 448.08 101.172C453.212 100.031 456.157 104.768 457.005 109.308C461.711 97.0766 473.272 98.9116 472.158 111.909C474.646 109.597 477.189 109.044 480.299 110.917C484.508 113.453 483.812 119.65 482.657 124.037C488.452 124.087 491.292 128.245 487.932 141.506C479.129 172.821 474.864 202.412 475.253 229.459C463.632 244.288 479.596 149.638 484.262 140.476C486.858 130.845 485.566 125.182 480.896 129.069L475.032 140.608C474.278 142.136 471.883 141.036 472.55 139.471C472.555 139.455 477.581 127.204 477.582 127.189C479.061 123.689 481.191 115.905 478.331 114.183C476.89 113.314 475.397 112.419 470.425 120.525L464.373 137.731C463.772 139.524 460.973 138.606 461.545 136.808C462.75 130.076 472.31 110.192 466.571 105.054C462.426 103.569 459.886 112.949 457.549 117.287L451.808 134.308C451.561 135.037 450.782 135.456 450.033 135.244C449.259 135.025 448.809 134.221 449.028 133.447L453.872 116.314C453.672 112.461 453.62 104.418 448.842 104.907C442.611 106.179 438.037 131.439 436.534 139.739C436.734 141.55 437.671 143.87 438.916 145.17C445.021 149.215 450.606 156.86 448.696 164.526C448.381 165.705 446.501 165.304 446.739 164.078C446.818 163.627 447.02 163.143 446.858 162.721C446.663 162.212 446.169 152.944 439.573 149.663C437.818 148.79 435.648 147.991 434.78 146.216C433.659 144.4 433.048 142.494 432.635 140.427C431.657 132.638 424.953 123.892 422.872 126.673C419.598 155.045 416.559 203.85 407.165 247.444C406.716 249.826 402.874 249.107 403.435 246.661" fill="#141414"/></g><g id="Assets 108"><path id="t-shirt" fill-rule="evenodd" clip-rule="evenodd" d="M134.289 153.818C100.447 225.407 100.969 318.595 121.273 350.258C130.78 365.086 150.673 370.017 159.998 369.321L145.107 387.115L393.879 392.115C393.879 392.115 389.043 366.728 387.225 359.057C400.8 362.419 416.445 362.432 427.413 352.835C462.774 321.894 474.861 239.316 477.353 219.199C447.324 211.377 407.157 199.92 407.157 199.92L399.604 222.434C399.604 222.434 398.693 168.111 378 136C359.804 107.764 335 91 288 86C241 81 165.13 88.5793 134.289 153.818Z" fill="#2bd302"/><path id="Fill 40" fill-rule="evenodd" clip-rule="evenodd" d="M382.76 313.102L379.846 290.217L376.791 267.352L373.737 244.487C372.683 236.87 371.643 229.251 370.515 221.644C368.271 206.429 365.925 191.228 363.26 176.07C363.17 175.569 362.708 175.208 362.192 175.259C361.65 175.311 361.253 175.794 361.305 176.337C362.797 191.655 364.608 206.929 366.521 222.189C367.471 229.82 368.51 237.439 369.534 245.06L372.715 267.908L375.895 290.756L379.217 313.585C381.417 328.806 383.725 344.013 386.128 359.206C386.22 359.788 386.756 360.2 387.346 360.132C387.953 360.062 388.388 359.514 388.319 358.908C386.565 343.625 384.716 328.356 382.76 313.102" fill="#141414"/></g><path id="notebook" fill-rule="evenodd" clip-rule="evenodd" d="M328.914 397.571L194.417 382.914C190.315 382.467 187.352 378.778 187.799 374.675L209.285 177.525C209.732 173.423 213.42 170.46 217.523 170.906L352.019 185.565C356.122 186.012 359.085 189.7 358.638 193.802L337.151 390.953C336.705 395.055 333.016 398.018 328.914 397.571" fill="#141414"/><g id="hand 2"><path id="SKIN_2" fill-rule="evenodd" clip-rule="evenodd" d="M238.765 336.32C258.283 329.495 277.978 319.597 296.849 307.976C328.567 288.446 344.898 272.352 351.556 266.508C353.958 264.4 358.615 259.506 357.136 255.418C356.081 252.503 352.558 250.968 350.076 252.827C350.076 252.827 353.459 250.472 355.537 247.916C357.504 245.497 357.953 242.334 356.611 240.279C354.543 237.112 351.189 237.334 348.315 239.397L351.246 236.876C354.196 234.585 355.383 230.939 353.28 227.381C351.714 224.731 346.637 224.239 343.267 226.316C342.053 227.065 338.436 229.379 338.436 229.379C340.924 227.342 340.963 222.855 338.901 220.388C337.013 218.131 333.697 217.616 331.271 219.284C320.084 226.979 306.534 234.72 297.989 239.357C297.989 239.357 297.214 227.915 296.353 224.319C295.551 220.969 289.72 216.568 287.219 221.581C283.827 228.378 280.58 239.911 277.896 248.617C260.606 257.864 252.604 262.332 231.07 269.082" fill="white"/><path id="Fill 54" fill-rule="evenodd" clip-rule="evenodd" d="M359.352 256.115C359.018 253.811 357.583 251.875 355.6 250.805C355.596 250.803 355.591 250.803 355.587 250.8C355.821 250.568 356.056 250.343 356.287 250.097C357.048 249.287 357.893 248.227 358.43 247.053C358.988 245.886 359.345 244.591 359.37 243.212C359.411 241.852 359.058 240.334 358.206 239.088C357.463 237.994 356.374 236.917 354.945 236.357C354.82 236.306 354.689 236.283 354.561 236.241C354.921 235.747 355.254 235.226 355.511 234.665C355.853 233.904 356.1 233.091 356.228 232.249C356.34 231.404 356.325 230.547 356.201 229.712C356.054 228.883 355.81 228.082 355.47 227.344C355.291 226.965 355.124 226.654 354.888 226.253C354.617 225.82 354.29 225.437 353.938 225.114C352.501 223.813 350.835 223.336 349.267 223.144C347.683 222.97 346.112 223.126 344.6 223.594C343.845 223.829 343.105 224.147 342.403 224.565L342.305 224.627C342.294 223.844 342.191 223.064 341.983 222.302C341.616 220.867 340.789 219.39 339.592 218.344C338.411 217.28 336.894 216.607 335.316 216.432C333.739 216.238 332.088 216.585 330.698 217.384L330.188 217.701L329.821 217.951L329.088 218.45L327.62 219.443C325.656 220.761 323.665 222.047 321.667 223.319C314.464 227.873 307.085 232.182 299.616 236.314C299.505 234.94 299.405 233.565 299.273 232.188C299.039 229.832 298.811 227.509 298.396 225.076C298.349 224.776 298.278 224.452 298.209 224.134L298.159 223.893L298.074 223.59C298.019 223.381 297.942 223.202 297.873 223.009C297.572 222.272 297.183 221.643 296.748 221.068C295.871 219.927 294.811 218.985 293.486 218.284C292.822 217.94 292.082 217.659 291.245 217.534C290.411 217.413 289.46 217.474 288.581 217.817C286.787 218.501 285.78 220.22 285.325 221.283C283.245 225.683 281.754 230.163 280.295 234.645C278.931 238.892 277.676 243.153 276.387 247.378C269.072 251.28 261.859 255.303 254.385 258.669C246.694 262.158 238.695 264.975 230.615 267.628C229.832 267.885 229.388 268.723 229.627 269.517C229.871 270.323 230.721 270.779 231.527 270.536C239.724 268.062 247.887 265.289 255.778 261.787C263.68 258.304 271.226 254.218 278.748 250.208C279.149 249.991 279.477 249.619 279.622 249.148C281.008 244.662 282.33 240.185 283.762 235.763C285.204 231.357 286.7 226.942 288.635 222.884C288.897 222.315 289.061 222.026 289.286 221.75C289.502 221.488 289.714 221.338 289.924 221.249C290.324 221.083 291.018 221.149 291.777 221.558C292.523 221.947 293.26 222.59 293.799 223.306C294.069 223.663 294.293 224.043 294.434 224.39C294.459 224.473 294.503 224.562 294.518 224.637L294.552 224.756L294.591 224.945C294.643 225.199 294.7 225.445 294.742 225.724C295.439 230.146 295.78 234.88 296.122 239.484L296.123 239.506C296.143 239.76 296.216 240.013 296.345 240.252C296.838 241.16 297.975 241.497 298.883 241.004C307.299 236.434 315.586 231.648 323.706 226.543C325.731 225.26 327.75 223.963 329.748 222.629L331.244 221.623L331.99 221.117L332.362 220.865L332.613 220.712C333.29 220.331 334.087 220.153 334.88 220.257C335.67 220.345 336.436 220.685 337.023 221.222C337.326 221.491 337.573 221.788 337.77 222.139C337.98 222.484 338.143 222.886 338.25 223.309C338.698 224.878 338.334 226.756 337.419 227.671C337.328 227.724 337.237 227.779 337.153 227.848C336.03 228.769 334.812 229.675 333.597 230.566C332.377 231.459 331.142 232.341 329.897 233.215C327.411 234.962 324.891 236.686 322.368 238.383L322.358 238.388C321.717 238.821 321.517 239.684 321.915 240.359C322.33 241.059 323.234 241.292 323.934 240.877C326.579 239.312 329.199 237.731 331.811 236.112C333.117 235.303 334.418 234.483 335.716 233.643C337.015 232.801 338.304 231.955 339.601 231.011C339.63 230.99 339.667 230.962 339.696 230.938C339.754 230.89 339.801 230.834 339.852 230.781L342.77 228.936L344.385 227.921C344.805 227.672 345.269 227.47 345.76 227.32C346.737 227.015 347.816 226.915 348.823 227.031C349.824 227.136 350.771 227.505 351.268 227.985C351.396 228.101 351.494 228.221 351.567 228.343C351.657 228.504 351.804 228.767 351.899 228.977C352.105 229.425 352.235 229.881 352.32 230.335C352.459 231.246 352.33 232.154 351.935 233.012C351.518 233.881 350.914 234.623 350.026 235.322L347.152 237.787C344.008 240.179 340.69 242.499 337.404 244.807L327.457 251.674L327.438 251.686C326.753 252.161 326.56 253.095 327.012 253.804C327.475 254.53 328.437 254.743 329.163 254.28L339.389 247.761C342.787 245.553 346.168 243.372 349.536 240.999C349.554 240.987 349.578 240.969 349.595 240.956C349.638 240.924 349.671 240.884 349.71 240.848C350.331 240.441 350.981 240.129 351.603 239.969C352.307 239.804 352.936 239.824 353.461 240.044C353.993 240.248 354.476 240.692 354.904 241.312C355.232 241.8 355.4 242.409 355.381 243.135C355.371 243.845 355.17 244.62 354.824 245.332C354.481 246.062 354.014 246.664 353.352 247.379C352.109 248.713 350.564 250 349.049 251.099C349.008 251.127 348.963 251.147 348.924 251.178L348.908 251.191L336.539 260.833L336.53 260.841C335.877 261.352 335.729 262.291 336.209 262.979C336.706 263.693 337.687 263.869 338.401 263.373L351.085 254.546C351.13 254.519 351.177 254.499 351.22 254.469C351.239 254.455 351.256 254.44 351.275 254.427L351.276 254.428C351.949 253.928 352.831 253.882 353.727 254.341C354.598 254.793 355.271 255.749 355.39 256.659C355.532 257.595 355.156 258.839 354.476 260.031C353.798 261.232 352.861 262.396 351.831 263.476C351.313 264.019 350.771 264.537 350.205 265.034L348.376 266.67L344.776 269.918C342.381 272.074 339.962 274.189 337.509 276.266C332.603 280.422 327.567 284.422 322.409 288.264C317.266 292.129 311.921 295.719 306.549 299.258C305.203 300.138 303.888 301.068 302.563 301.982C301.239 302.897 299.851 303.716 298.493 304.579C295.768 306.294 293.021 307.972 290.246 309.601C284.704 312.874 279.081 316.009 273.367 318.958C267.658 321.917 261.856 324.689 255.986 327.297C253.046 328.588 250.097 329.859 247.113 331.041C245.627 331.648 244.127 332.217 242.628 332.789C241.132 333.371 239.644 333.964 238.263 334.881L238.225 334.906C237.753 335.22 237.47 335.782 237.539 336.384C237.637 337.241 238.412 337.857 239.269 337.759C240.928 337.569 242.5 337.111 244.028 336.539C245.557 335.969 247.086 335.402 248.601 334.797C251.643 333.619 254.647 332.35 257.643 331.063C263.62 328.458 269.476 325.592 275.255 322.593C281.034 319.589 286.711 316.401 292.304 313.076C297.913 309.774 303.346 306.203 308.898 302.803C319.652 295.473 330.157 287.748 340.095 279.318C342.58 277.213 345.033 275.068 347.448 272.894L351.055 269.64L352.845 268.04C353.494 267.469 354.123 266.869 354.722 266.241C355.919 264.98 357.041 263.614 357.96 261.996C358.845 260.397 359.644 258.426 359.352 256.115" fill="#141414"/></g><g id="Assets 109"><path id="Fill 56" fill-rule="evenodd" clip-rule="evenodd" d="M160.289 368.61C225.525 362.911 285.997 328.289 285.997 328.289L245.748 252.588C245.748 252.588 202.9 269.24 174.613 272.178" fill="#2bd302"/><path id="Fill 58" fill-rule="evenodd" clip-rule="evenodd" d="M188.939 245.729L188.435 269.368Z" fill="#2bd302"/><path id="Fill 60" fill-rule="evenodd" clip-rule="evenodd" d="M287.878 327.298L287.874 327.291L247.625 251.59C247.126 250.652 245.991 250.211 244.977 250.606V250.606C239.296 252.829 233.503 254.93 227.709 256.935C221.904 258.932 216.067 260.836 210.191 262.593C204.316 264.352 198.402 265.98 192.445 267.376C191.818 267.524 191.188 267.657 190.559 267.799L190.526 245.763C190.524 244.92 189.859 244.217 189.009 244.179C188.133 244.141 187.392 244.819 187.353 245.694L186.336 268.705C182.391 269.506 178.428 270.186 174.453 270.649L174.439 270.651C173.606 270.747 173.003 271.495 173.086 272.332C173.171 273.178 173.925 273.795 174.771 273.71C180.996 273.086 187.127 271.988 193.19 270.665C199.254 269.345 205.256 267.794 211.215 266.112C217.175 264.433 223.088 262.608 228.97 260.688C234.256 258.952 239.499 257.148 244.739 255.222L283.128 327.423C274.152 332.36 264.792 336.849 255.35 340.989C245.247 345.387 234.966 349.39 224.524 352.909C214.082 356.424 203.483 359.491 192.741 361.921C182.008 364.396 171.121 366.169 160.169 367.24L160.155 367.241C159.406 367.315 158.854 367.978 158.919 368.729C158.984 369.486 159.651 370.047 160.408 369.982C171.508 369.024 182.543 367.352 193.417 364.974C204.303 362.641 215.042 359.664 225.625 356.235C236.209 352.8 246.629 348.877 256.881 344.553C267.133 340.19 277.189 335.519 287.053 330.135C288.045 329.57 288.418 328.314 287.878 327.298" fill="#141414"/></g><g id="neck"><path id="SKIN_3" fill-rule="evenodd" clip-rule="evenodd" d="M245.354 50.9429C245.354 50.9429 247.067 69.8905 246.116 75.9239C245 83.0001 240 84.0001 236 87.0001C242.613 105.522 266.568 117.911 286.527 120.943C290.846 121.599 306.465 106.041 305 89.0001C304 84.0001 303.889 80.0871 304 76.0001L304.618 53.5909" fill="white"/><path id="Fill 3" fill-rule="evenodd" clip-rule="evenodd" d="M288.902 119.431C288.902 119.431 268.999 111 235.999 87C231.658 114.869 243.532 189.657 288.548 124.985C288.548 124.985 311.067 149.753 318.288 144.042C336.442 129.684 305.809 89.2905 305.809 89.2905C303.372 106.42 288.902 119.431 288.902 119.431Z" fill="#FFC81A"/><path id="Fill 7" fill-rule="evenodd" clip-rule="evenodd" d="M290.029 123.635C289.186 122.675 287.524 122.815 286.859 123.915C251.769 175.797 234.034 133.828 237.009 88.8546C255.451 104.351 274.295 115.769 288.209 121.305C294.452 120.404 304.637 103.018 306.839 94.2146C307.179 94.7146 314.135 104.171 317.039 112.105C321.659 122.305 325.409 135.855 317.049 142.475C314.279 144.665 303.169 138.085 290.029 123.635ZM306.619 53.6446C306.649 52.5446 305.779 51.6246 304.669 51.5946C303.559 51.5546 302.649 52.4346 302.619 53.5346L301.829 82.5646C306.512 95.6906 291.544 114.225 288.449 117.095C283.589 115.055 264.98 107.07 241 87C244 85 247.709 83.4146 248.109 76.0346C248.439 69.8846 247.399 51.6046 247.349 50.8246C247.232 48.2566 243.168 48.4586 243.359 51.0546C243.369 51.2446 244.439 69.8946 244.119 75.8146C243.558 81.4926 236.023 83.0996 234.215 86.7166C228.34 122.402 243.34 188.668 288.799 128.195C295.109 134.855 312.129 151.475 319.529 145.615C338.999 130.215 306.873 86.9906 306.752 86.8686C304.071 84.1746 306.792 57.5316 306.619 53.6446Z" fill="#141414"/></g></g></g><g id="Head" transform="translate(439 92) scale(1 1)"><g id="Head/Short Hair 4"><g id="Short Hair"><path id="SKIN" fill-rule="evenodd" clip-rule="evenodd" d="M152.657 90.1809C145.373 45.6369 123.61 44.3309 82.9817 47.3839C63.9047 48.8169 40.0927 66.0939 42.2237 97.4009C31.0747 93.1319 24.8227 100.16 25.1997 108.558C25.5397 116.098 28.9517 126.031 42.8227 126.031C44.1667 149.026 59.1767 186.07 106.318 186.07C154.452 186.07 158.973 128.808 152.657 90.1809" fill="white"/><path id="hair" fill-rule="evenodd" clip-rule="evenodd" d="M138.121 170.34C118.077 194.314 72.5216 184.62 57.2356 161.175C49.0796 151.308 44.8676 132.557 44.8196 125.914C44.8126 124.854 43.8816 124.03 42.8226 124.03C27.8566 124.935 22.8666 106.491 30.8506 99.6315C34.5986 96.8085 39.7466 97.7555 43.5586 99.9375C44.1256 100.262 59.2616 99.0255 68.9366 70.0025C87.7926 80.9795 123.159 86.3555 147.697 77.2195C155.497 106.091 156.337 148.278 138.121 170.34M184.717 29.2635C180.871 5.2195 152.544 2.2375 130.5 12.4815C110.583 -11.0815 56.3156 -2.9285 46.9716 30.4715C39.4566 29.0205 31.4976 30.7915 24.3566 35.5425C-14.8494 63.6145 11.7436 122.486 28.2246 130.587C32.4816 144.17 37.8976 152.043 48.7036 154.779C59.0946 182.991 115.317 203.848 141.171 172.93C160.649 149.336 159.705 106.035 151.378 75.6645C170.34 66.3325 186.977 49.3175 184.717 29.2635M36.7832 106.032C33.8272 105.929 33.8272 114.161 36.7832 114.058C39.7392 114.161 39.7392 105.928 36.7832 106.032" fill="#141414"/></g></g></g><g id="Face" transform="translate(499 178) scale(1 1)"><g id="Face/Open Mouth"><g id="Open Mouth"><path id="face" fill-rule="evenodd" clip-rule="evenodd" d="M70.9882 13.9992C68.0522 13.1742 65.0782 13.0552 62.1032 13.8122C61.3352 13.9612 60.5912 13.4602 60.4422 12.6922C60.2782 10.4482 64.6642 9.45818 66.4202 9.12918C68.9872 8.53018 78.2462 9.98018 75.8402 14.0072C74.8739 14.9846 73.5478 14.6298 72.2836 14.2916C71.838 14.1724 71.4 14.0552 70.9882 13.9992ZM79.0837 28.4098C82.3627 26.3868 77.0907 22.1598 75.2657 21.4738C69.4397 18.6568 61.9697 21.0418 58.6887 26.5268C58.2247 27.2298 58.3157 28.1878 58.9497 28.7888C59.6937 29.4978 60.8847 29.4128 61.5407 28.6288C62.6357 27.4718 63.7997 26.4788 65.0977 25.7828C68.6977 23.8368 74.1807 24.5208 76.8177 27.5978C77.2937 28.3478 78.2017 28.7898 79.0837 28.4098ZM53.2121 41.7435C64.1301 46.3135 60.3391 58.0745 48.9291 57.1785C46.3381 57.1585 46.3271 53.2175 48.9111 53.1785C51.0741 53.1255 54.3141 52.8435 55.2651 50.9605C56.4161 48.0585 53.4991 46.1325 50.9521 45.1195C49.8511 44.6065 49.4721 43.1815 49.3121 42.3375C48.4978 37.2812 48.6234 32.2363 48.7496 27.1678L48.7601 26.7445C48.7891 25.0005 51.4901 24.9795 51.5791 26.6915C51.7055 28.058 51.8056 29.4359 51.9059 30.8166C52.173 34.4938 52.4415 38.1905 53.2121 41.7435ZM30.3622 32.9675C29.6752 32.1725 28.7082 31.6365 27.5622 31.4665C23.6152 30.9165 20.4002 34.4195 19.1242 37.9275C18.7892 38.8765 17.7262 39.3655 16.7902 38.9875C14.522 37.8155 16.3701 34.8966 17.597 32.9588C17.8105 32.6215 18.0053 32.3139 18.1562 32.0505C20.3672 29.0185 24.0882 26.8595 28.0172 27.2305C30.0292 27.4015 32.0852 28.2865 33.5832 29.8225C35.6322 31.9375 32.4222 35.0645 30.3622 32.9675ZM23.7171 17.8459H23.7171C24.9032 17.8693 26.1151 17.8932 26.6225 16.807C27.4035 13.736 19.8595 14 17.9705 14.2C15.5715 14.569 10.0895 15.517 9.99951 18.591C10.1315 19.604 11.0595 20.318 12.0715 20.187C13.5777 19.9711 15.0595 19.5563 16.5438 19.1407C18.3183 18.6439 20.0965 18.1461 21.9245 17.986C22.4365 17.8206 23.073 17.8331 23.7171 17.8459ZM58.3953 62.0875C62.3488 61.5386 68.1152 60.738 69.169 62.5403C72.497 69.5353 66.256 77.4383 59.985 80.2743C50.105 84.8163 30.721 80.4693 32.805 66.7053C32.769 66.2653 33.383 65.5403 33.895 65.5473C34.7414 65.42 35.5932 65.2916 36.4491 65.1625C42.6883 64.2219 49.1471 63.2481 55.329 62.4453C56.0061 62.4192 57.104 62.2668 58.3953 62.0875Z" fill="#141414"/><path id="dot" fill-rule="evenodd" clip-rule="evenodd" d="M71.0965 36.1706C69.5995 36.1836 69.6205 38.5066 71.1165 38.4936C72.6135 38.4816 72.5915 36.1576 71.0965 36.1706ZM30.8523 42.5124C28.8363 43.4524 30.2933 46.5864 32.3133 45.6444C34.3283 44.7044 32.8713 41.5714 30.8523 42.5124ZM23.5066 45.0485C22.0286 45.7375 23.0976 48.0355 24.5786 47.3455C26.0566 46.6555 24.9866 44.3585 23.5066 45.0485ZM27.7127 52.1735C25.2727 53.3125 27.0367 57.1085 29.4827 55.9675C31.9227 54.8285 30.1577 51.0335 27.7127 52.1735ZM20.0076 53.3102C18.6656 50.1012 14.3706 55.1302 18.2626 55.7892C19.8626 56.3762 20.8486 54.5802 20.0076 53.3102ZM70.4275 43.7263C67.9545 43.7473 67.9905 47.5833 70.4595 47.5633C72.9335 47.5423 72.8965 43.7053 70.4275 43.7263ZM77.2517 41.6266C77.0577 43.0086 78.5807 44.1076 79.6737 42.9896C82.6337 40.9086 77.0957 38.4416 77.2517 41.6266ZM64.0183 36.9704C61.9763 36.9884 62.0063 40.1564 64.0443 40.1384C66.0863 40.1204 66.0573 36.9524 64.0183 36.9704Z" fill="#FF4B33"/></g></g></g><g id="Accessories" transform="translate(491 176) scale(103 60)"><g id="Accessories/None" stroke="none" stroke-width="1" fill="none" fill-rule="evenodd" fill-opacity="0"/></g><g id="Facial Hair" transform="translate(501 234) scale(90 60)"><g id="Facial Hair/None" stroke="none" stroke-width="1" fill="none" fill-rule="evenodd" fill-opacity="0"/></g></g></g></g></svg>